<?xml version="1.0" standalone="no"?>
<!DOCTYPE svg PUBLIC "-//W3C//DTD SVG 1.1//EN" "http://www.w3.org/Graphics/SVG/1.1/DTD/svg11.dtd" >
<svg xmlns="http://www.w3.org/2000/svg">
<metadata>
Created by FontForge 20120731 at Thu Feb 25 11:34:31 2016
 By Ads
</metadata>
<defs>
<font id="iconfont" horiz-adv-x="1024" >
  <font-face 
    font-family="iconfont"
    font-weight="500"
    font-stretch="normal"
    units-per-em="1024"
    panose-1="2 0 6 3 0 0 0 0 0 0"
    ascent="896"
    descent="-128"
    x-height="792"
    bbox="-0.333333 -212 1487.11 895"
    underline-thickness="50"
    underline-position="-100"
    unicode-range="U+0078-E645"
  />
<missing-glyph horiz-adv-x="374" 
d="M34 0v682h272v-682h-272zM68 34h204v614h-204v-614z" />
    <glyph glyph-name=".notdef" horiz-adv-x="374" 
d="M34 0v682h272v-682h-272zM68 34h204v614h-204v-614z" />
    <glyph glyph-name=".null" horiz-adv-x="0" 
 />
    <glyph glyph-name="nonmarkingreturn" horiz-adv-x="341" 
 />
    <glyph glyph-name="x" unicode="x" horiz-adv-x="1001" 
d="M281 543q-27 -1 -53 -1h-83q-18 0 -36.5 -6t-32.5 -18.5t-23 -32t-9 -45.5v-76h912v41q0 16 -0.5 30t-0.5 18q0 13 -5 29t-17 29.5t-31.5 22.5t-49.5 9h-133v-97h-438v97zM955 310v-52q0 -23 0.5 -52t0.5 -58t-10.5 -47.5t-26 -30t-33 -16t-31.5 -4.5q-14 -1 -29.5 -0.5
t-29.5 0.5h-32l-45 128h-439l-44 -128h-29h-34q-20 0 -45 1q-25 0 -41 9.5t-25.5 23t-13.5 29.5t-4 30v167h911zM163 247q-12 0 -21 -8.5t-9 -21.5t9 -21.5t21 -8.5q13 0 22 8.5t9 21.5t-9 21.5t-22 8.5zM316 123q-8 -26 -14 -48q-5 -19 -10.5 -37t-7.5 -25t-3 -15t1 -14.5
t9.5 -10.5t21.5 -4h37h67h81h80h64h36q23 0 34 12t2 38q-5 13 -9.5 30.5t-9.5 34.5q-5 19 -11 39h-368zM336 498v228q0 11 2.5 23t10 21.5t20.5 15.5t34 6h188q31 0 51.5 -14.5t20.5 -52.5v-227h-327z" />
    <glyph glyph-name="uniE600" unicode="&#xe600;" 
d="M512 680l-447 -403h134v-223h1v-89q0 -12 6 -22.5t16 -16t22 -5.5h134q19 0 32 13t13 31v223h178v-223q0 -12 6 -22.5t16.5 -16t22.5 -5.5h134q18 0 31 13t13 31v89h1v223h134z" />
    <glyph glyph-name="uniE601" unicode="&#xe601;" 
d="M706 606l-318 -318l317 -318q9 -8 9 -19.5t-8.5 -19.5t-20 -8t-19.5 8l-14 14l-343 342l358 358q8 8 19.5 8t20 -8t8.5 -19.5t-9 -19.5z" />
    <glyph glyph-name="uniE602" unicode="&#xe602;" 
d="M190 317q11 0 18.5 7.5t7.5 18.5q0 4 -1 8t-3.5 7t-6 5.5t-7.5 4t-8 1.5h-1h-62h-4q-15 0 -25.5 -10.5t-10.5 -25.5v-434q0 -7 2.5 -13.5t7.5 -11.5t11.5 -7.5t13.5 -2.5h2h4h61v0h1q10 0 17 7.5t7 17.5t-7 17.5t-17 7.5h-51l2 403h49zM927 354q-10 15 -22.5 25.5t-27 15
t-32.5 5.5h-5l-206 1q23 66 23 129q0 14 -1 28t-3 27.5t-5 27.5v-1q-4 18 -13.5 33t-23 25.5t-30 17t-34.5 6.5q-42 0 -69 -31t-27 -75v-4v-6q-1 -40 -17 -76.5t-42.5 -63.5t-62 -45t-74.5 -22v-55l-1 -222v-230h520q13 0 23 3.5t24 12.5q25 16 38 42q3 5 5 11l77 345
q1 2 1 4v4v4q1 16 -2.5 32.5t-12.5 31.5zM894 301l-83 -368q-4 -9 -13 -15q-6 -4 -14 -5h-3h-1l-477 1v407q77 35 121 72t67 102q6 17 9 33q3 13 4 27.5t1 22.5v8q-3 25 12 39t33 14q18 -1 34 -19t16 -33q1 -4 1.5 -9t2.5 -20.5t2 -28.5q0 -10 -0.5 -20t-1.5 -16t-1.5 -11
t-1.5 -7v-3q-5 -23 -12.5 -44.5t-18.5 -42.5q0 -2 -1 -3.5t-1.5 -3.5t-0.5 -4v-5q0 -5 1.5 -8.5t4 -6t6 -4t8.5 -2t9 -1t9 -0.5h239h15q9 0 17.5 -4.5t13.5 -12.5q8 -13 4 -29v0zM265 -136v0v0z" />
    <glyph glyph-name="uniE603" unicode="&#xe603;" 
d="M900 -50h-776q-5 0 -9 2.5t-6 6.5t-2 9v775q0 5 2 9t6 6.5t9 2.5h776q7 0 12 -5.5t5 -12.5v-775q0 -8 -5 -13t-12 -5zM142 -14h740v739h-740v-739zM887 518h-750q-5 0 -9 2t-6.5 6.5t-2.5 9t2.5 8.5t6.5 6.5t9 2.5h750q5 0 9 -2.5t6.5 -6.5t2.5 -9q0 -7 -5.5 -12
t-12.5 -5zM229 679q-17 0 -28.5 -11.5t-11.5 -28.5q0 -8 3.5 -15t8.5 -12.5t12.5 -8.5t15.5 -3q16 0 27.5 11.5t11.5 27.5q0 8 -3 15.5t-8.5 12.5t-12.5 8.5t-15 3.5zM342 679q-16 0 -27.5 -11.5t-11.5 -28.5q0 -8 3 -15t8 -12.5t12.5 -8.5t15.5 -3q16 0 27.5 11.5t11.5 28
t-11.5 28t-27.5 11.5zM455 679q-11 0 -20 -5.5t-14 -14.5t-5 -19.5t5 -20t14 -14.5t20 -5q16 0 27.5 11.5t11.5 27.5q0 6 -1.5 11t-4 9t-6 8t-7.5 6.5t-9.5 4t-10.5 1.5zM512 375h-243q-4 0 -7 1.5t-5.5 3.5t-4 5.5t-1.5 7.5t2.5 8.5t6.5 6.5t9 2h243q7 0 12.5 -5t5.5 -12.5
t-5.5 -12.5t-12.5 -5zM512 262h-243q-8 0 -13 5.5t-5 12.5t5 12.5t13 5.5h243q7 0 12.5 -5.5t5.5 -13t-5.5 -12.5t-12.5 -5zM512 149h-243q-8 0 -13 5.5t-5 12.5t5 12.5t13 5.5h243q7 0 12.5 -5.5t5.5 -12.5t-5.5 -12.5t-12.5 -5.5zM755 149h-154q-15 0 -17 15l-1 3v226
q0 7 5.5 12t12.5 5h154q4 0 7.5 -1t5.5 -3.5t3.5 -6t1.5 -6.5v-226q0 -7 -5 -12.5t-13 -5.5zM619 185h119v190h-119v-190z" />
    <glyph glyph-name="uniE604" unicode="&#xe604;" horiz-adv-x="1449" 
d="M1133 459l-169 210q-2 3 -5.5 4.5t-6.5 2t-6.5 -0.5t-6.5 -4l-464 -405q-3 -3 -5 -7l-103 -253q-4 -10 3 -18.5t17 -6.5l261 57l8 4zM401 14l83 185q4 9 13.5 10.5t15.5 -6.5l89 -110q6 -8 3 -17.5t-12 -12.5l-192 -49v0zM653 87l-124 154q-5 6 -4.5 13.5t6.5 12.5
l296 259q6 4 13 3.5t12 -6.5l113 -140q4 -6 3.5 -13.5t-5.5 -12.5zM867 561l68 59q4 3 8.5 4t9 -1t7.5 -6l113 -140q3 -3 3.5 -8t-1 -9.5t-5.5 -7.5l-54 -48q-5 -4 -12.5 -3.5t-11.5 6.5zM650 204l216 188q5 5 6 12.5t-4 13.5t-12 6.5t-13 -4.5l-215 -188q-6 -5 -6.5 -12.5
t3.5 -13.5q5 -5 12.5 -6t12.5 4z" />
    <glyph glyph-name="uniE605" unicode="&#xe605;" 
d="M856 727q-31 31 -74 31q-8 0 -16 -1.5t-15.5 -4t-15 -6t-14 -8.5t-12.5 -11t-6 -14.5t6 -14.5l43 -44q52 -51 76 -75q6 -6 14 -6q9 0 14 6q32 32 32 75q-1 42 -32 73zM840 624q-6 7 -14.5 15t-13.5 13.5t-16.5 16.5t-14.5 14l-27 27q14 7 28 7q7 0 13 -1.5t11.5 -4t11 -6
t10.5 -7.5q19 -19 19 -45q0 -15 -7 -29zM676 668q-6 6 -15 6q-2 0 -5 -1l-4 -2q-3 -1 -5 -3l-429 -429q-5 -5 -6 -13l-53 -166q-1 -3 -0.5 -7t2 -7.5t3.5 -5.5q6 -6 15 -6q3 0 6 1l170 54q3 1 5.5 2.5t3.5 4.5l428 427q6 6 6 14.5t-6 14.5zM243 187l68 -69l-101 -32z
M349 138l-87 87l399 399l87 -87z" />
    <glyph glyph-name="uniE606" unicode="&#xe606;" 
d="M769 118h-514q0 89 54.5 158t138.5 90q-42 16 -68 53.5t-26 83.5q0 61 43 104t104 43t104 -43t43 -104q0 -22 -6.5 -42.5t-17.5 -37.5t-27 -31t-35 -22q89 -18 148 -88.5t59 -163.5z" />
    <glyph glyph-name="uniE607" unicode="&#xe607;" 
d="M512 811q-86 0 -165 -34t-136.5 -91.5t-91.5 -136.5t-34 -165q0 -115 57.5 -213.5t156 -156t213.5 -57.5t213.5 57.5t156 156t57.5 213.5t-57.5 213.5t-156 156t-213.5 57.5zM512 0q-158 0 -271 113t-113 271t113 271t271 113t271 -113t113 -271t-113 -271t-271 -113z
M512 341q9 0 16.5 3.5t13.5 9.5t9.5 13.5t3.5 16.5q0 18 -12.5 30.5t-30.5 12.5t-30.5 -12.5t-12.5 -30.5t12.5 -30.5t30.5 -12.5zM723 617q-6 0 -8 -3l-276 -108q-16 -7 -28 -19t-18 -28l-109 -276q-5 -11 1.5 -20t17.5 -9l8 2l276 109q33 13 47 46l108 276q5 11 -1 20.5
t-18 9.5zM593 326q-3 -8 -9 -14t-14 -9l-229 -92l92 228q7 17 24 24l228 92z" />
    <glyph glyph-name="uniE608" unicode="&#xe608;" horiz-adv-x="1000" 
d="M935 668q-8 -2 -375 -132q-498 -175 -508 -179q-11 -4 -12 -11.5t11 -12.5l190 -76l113 -45q542 398 549 403q5 4 10 -1t1 -9q-3 -3 -101.5 -109.5t-195.5 -211.5l-97 -105l-23 -25l30 -16q233 -125 249 -134q11 -6 23 -1.5t15 18.5q120 516 145 626q3 13 -4 19.5
t-20 1.5zM353 -58q0 -9 4.5 -11.5t11.5 4.5q13 11 143 128l-159 82v-203z" />
    <glyph glyph-name="uniE609" unicode="&#xe609;" horiz-adv-x="1032" 
d="M1031 438q-1 3 -5 5t-10 3l-291 42q-19 3 -38.5 17t-28.5 32l-130 263q-3 6 -6 9t-6 3q-7 0 -13 -12l-130 -263q-2 -5 -5 -9t-6.5 -8t-7.5 -8t-8.5 -7t-9.5 -6t-10 -5t-10 -3.5t-10 -2.5l-291 -42q-4 -1 -7 -2t-5 -2.5t-3 -3.5q-2 -7 8 -16l210 -205q14 -14 21.5 -36.5
t4.5 -42.5l-50 -289v-7q0 -3 0.5 -5.5t1.5 -3.5l6 -3q3 0 6 1t6 3l260 137q17 9 41.5 9t41.5 -9l260 -137q4 -2 7 -3t5 -1t3.5 0.5t2.5 2.5q2 2 2.5 6t-0.5 9l-49 290q-4 19 3.5 42t21.5 37l211 205q9 9 7 16z" />
    <glyph glyph-name="uniE60A" unicode="&#xe60a;" 
d="M512 -21l-59 60q-59 51 -92 81t-77.5 73t-69.5 71t-53.5 65.5t-42.5 67t-23.5 64t-9.5 69.5q0 99 68 166.5t167 67.5q54 0 105.5 -23.5t86.5 -65.5q36 42 87 65.5t105 23.5q100 0 167.5 -67.5t67.5 -166.5q0 -35 -9.5 -69.5t-23.5 -64t-42.5 -67t-53 -65.5t-69.5 -71
t-78 -73t-91 -81z" />
    <glyph glyph-name="uniE60B" unicode="&#xe60b;" 
d="M990 650q22 22 30 52.5t0 61t-30 52.5q-35 35 -84 35q-23 0 -44.5 -9t-37.5 -25l-218 -198q-22 -23 -52 -13l-119 40q-25 8 -51.5 2t-44.5 -24l-105 -105q-2 -2 -3.5 -4.5t-2 -5t-0.5 -5.5q0 -9 6 -15l409 -409q3 -3 7 -4.5t8 -1.5q9 0 15 6l105 105q19 18 25 44t-3 51
l-40 120q-4 14 -1 28t13 23zM720 386l40 -119q10 -30 -13 -52l-89 -90l-379 379l90 89q22 23 52 13l120 -40q25 -9 51 -2.5t44 24.5l217 198q11 10 25 15.5t28.5 5.5t28.5 -5.5t24 -15.5q15 -14 20 -33.5t0 -38.5t-19 -33l-217 -199q-19 -19 -25.5 -44.5t2.5 -51.5zM213 468
q-4 4 -9.5 5.5t-11 0t-9.5 -5.5q-29 -29 -79 -57t-90 -43q-11 -5 -13.5 -16t5.5 -20l409 -408q3 -3 7 -5t8 -2t8 2q25 9 55 23.5t67.5 38.5t61.5 48q3 3 4.5 7t1.5 8t-1.5 8t-4.5 7zM435 -36l-376 376q36 16 73 37.5t65 45.5l379 -378q-15 -12 -33.5 -24.5t-37.5 -23
t-36.5 -19t-33.5 -14.5zM896.5 685q14.5 0 25.5 11t11 26t-11 25.5t-25.5 10.5t-25.5 -10.5t-11 -25.5t11 -26t25.5 -11z" />
    <glyph glyph-name="uniE60C" unicode="&#xe60c;" 
d="M512 857q-96 0 -183 -37.5t-150 -100.5t-100.5 -150t-37.5 -183t37.5 -183.5t100.5 -150.5t150 -100t183 -37t183 37t150 100t100.5 150.5t37.5 183.5t-37.5 183t-100.5 150t-150 100.5t-183 37.5zM780 626l-174 -326q-3 -5 -8 -8l-326 -174q-5 -3 -10 -3q-8 0 -14 6
q-5 5 -6 12t2 13l174 325q3 6 8 9l326 174q3 1 5.5 1.5t5 0.5t5 -0.5t4.5 -2t4 -3.5q11 -11 4 -24zM451 447l-139 -261l261 139l139 261zM512 345q-27 0 -38 25q-3 8 -3 16q0 17 12 29t29 12q8 0 16 -3.5t13.5 -9t8.5 -13t3 -15.5q0 -17 -12 -29t-29 -12z" />
    <glyph glyph-name="uniE60D" unicode="&#xe60d;" 
d="M792 770h-563q-41 0 -70 -31.5t-29 -76.5v-655q0 -12 10 -18q1 -1 3 -1.5t3 -0.5h4q5 0 10 2l130 76h502q41 0 70 31.5t29 76.5v489q0 30 -13.5 54.5t-36.5 39t-49 14.5zM851 173q0 -28 -17.5 -48t-41.5 -20h-508q-2 0 -4.5 -0.5t-5.5 -2.5l-104 -61v621q0 28 17 48
t42 20h563q24 0 41.5 -20t17.5 -48v-489zM522 378h-204q-8 0 -14 -6t-6 -14q0 -6 3 -10.5t7.5 -7t9.5 -2.5h204q8 0 14 5.5t6 14t-6 14.5t-14 6zM702 544h-384q-8 0 -14 -6t-6 -14q0 -5 3 -10t7.5 -7.5t9.5 -2.5h384q8 0 14 6t6 14t-6 14t-14 6z" />
    <glyph glyph-name="uniE60E" unicode="&#xe60e;" 
d="M512 605q-16 -15 -28.5 -32.5t-21.5 -37.5t-13.5 -42t-4.5 -45q0 -59 29 -108.5t78.5 -78.5t108.5 -29q93 0 157 68h59q0 -99 -48.5 -183t-132.5 -132.5t-183 -48.5t-183 48.5t-132.5 132.5t-48.5 183q0 74 29 141.5t77.5 116t116 77.5t141.5 29v-59zM193 300
q0 -132 93.5 -225.5t225.5 -93.5q117 0 205.5 75.5t108.5 188.5q-73 -59 -166 -59q-71 0 -131.5 35t-95.5 95.5t-35 131.5q0 93 59 166q-113 -20 -188.5 -108.5t-75.5 -205.5z" />
    <glyph glyph-name="uniE60F" unicode="&#xe60f;" 
d="M628 -67h-1q-3 0 -6.5 1t-6 3t-4.5 5q-16 25 -42 39t-56 14t-56 -14t-42 -39q-6 -9 -17 -9h-4q-2 0 -3.5 1t-3.5 1l-199 115q-7 4 -9 12t1 15q29 57 -2 112q-15 26 -40.5 41.5t-56.5 16.5q-11 1 -16 11l-1 1l-3 10v228q0 9 6 14.5t14 6.5q30 1 55.5 16.5t41.5 41.5
q32 57 1 114q-2 5 -2 10.5t2 9.5q2 3 4 5t4 3l199 115q3 2 7 2.5t8 -0.5t7 -3.5t5 -5.5q16 -27 42.5 -41.5t57.5 -14.5t57.5 14.5t42.5 41.5q4 7 12 9t15 -2l199 -115q5 -3 7.5 -7.5t2.5 -10t-2 -10.5q-15 -27 -14.5 -57t15.5 -57q16 -26 41.5 -41.5t55.5 -16.5
q8 -1 14 -6.5t6 -14.5v-228q0 -6 -3 -10l-1 -1q-5 -10 -16 -11q-31 -1 -56.5 -16.5t-40.5 -41.5q-14 -26 -15 -55.5t13 -56.5q1 -3 1.5 -7t-0.5 -8t-3.5 -7t-5.5 -5l-199 -115q-3 -1 -5.5 -1.5t-4.5 -0.5zM512 36q74 0 121 -56l167 97q-25 69 12 132q37 65 111 77v193
q-35 6 -64 26t-47 51q-38 65 -11 136l-166 96q-11 -14 -25 -25t-29.5 -18.5t-33 -11.5t-35.5 -4q-76 0 -123 59l-166 -96q27 -71 -11 -136q-12 -21 -29 -37t-38 -26t-44 -14v-193q74 -12 111 -77q37 -63 12 -132l167 -97q47 56 121 56zM512 191q-79 0 -135 56t-56 135.5
t56 135.5t135 56t135 -56t56 -135.5t-56 -135.5t-135 -56zM512 533q-62 0 -106 -44t-44 -106.5t44 -106.5t106 -44t106 44t44 106.5t-44 106.5t-106 44z" />
    <glyph glyph-name="uniE610" unicode="&#xe610;" 
d="M512 836q-95 0 -182 -32t-150 -86.5t-100 -129.5t-37 -158q0 -96 49 -180.5t134 -141.5q-5 -22 -9.5 -67.5t-6 -75t-1.5 -33.5l11 20q57 75 214 75h14q6 0 13 -1q17 -1 33 -2h4h14q127 0 235.5 54.5t171 148t62.5 203.5q0 47 -12 93t-35.5 86t-55.5 75t-72.5 63t-87 48
t-99 30.5t-107.5 10.5zM820 171q-60 -52 -138 -80q-27 -10 -55 -16.5t-57 -10t-58 -3.5h-6h-7h-1h-1h-1l-32 2h-2q-14 1 -28 1q-112 0 -182 -38q4 51 10 74q5 25 -16 39q-38 26 -69 58q-5 5 -9 9.5t-8 9.5l-8 10l-8 10l-6 10l-8 10l-6 10q-21 38 -33 79q-4 14 -6.5 28
t-3.5 28.5t-1 28.5q0 74 33 142q32 66 91 117q12 11 25 20t26.5 17.5t27.5 16.5t29 14.5t30 12.5q40 14 83 21.5t87 7.5q89 0 170 -29q39 -15 73.5 -35t64.5 -46q19 -17 36 -35.5t31 -39t24 -42.5q33 -68 33 -142q0 -25 -3.5 -49t-11 -47t-18.5 -46q-32 -66 -91 -117z
M291.5 503q-34.5 0 -58.5 -24t-24 -58q0 -17 6.5 -32.5t17.5 -26.5t26.5 -17.5t31.5 -6.5q23 0 42 11t30 30t11 42q0 34 -24 58t-58.5 24zM291 375q-5 0 -10 1.5t-9.5 3.5t-8.5 5t-7 7t-5.5 8.5t-3.5 9.5t-1 11q0 12 6 22.5t16.5 16.5t22.5 6q7 0 12.5 -1.5t10.5 -4.5
t9.5 -7t7.5 -9t4.5 -11t1.5 -12q0 -19 -13.5 -32.5t-32.5 -13.5zM731 503q-34 0 -58 -24t-24 -58t24 -58.5t58 -24.5t58.5 24.5t24.5 58.5t-24.5 58t-58.5 24zM731 375q-19 0 -32 13.5t-13 32.5t13 32t32 13t32.5 -13t13.5 -32t-13.5 -32.5t-32.5 -13.5zM511 503
q-22 0 -41 -11t-30 -30t-11 -41.5t11 -41.5t30 -30t41 -11q34 0 58.5 24.5t24.5 58.5q0 8 -2 16t-5 15.5t-7.5 14t-10 12.5t-12 10.5t-14 7.5t-15.5 4.5t-17 1.5zM511.5 375q-18.5 0 -32 13.5t-13.5 32.5q0 12 6 22.5t16.5 16.5t22.5 6q19 0 32.5 -13t13.5 -32t-13.5 -32.5
t-32 -13.5z" />
    <glyph glyph-name="uniE611" unicode="&#xe611;" 
d="M744 -55v41h187q2 0 4 1t3.5 1.5t2.5 1.5l2 4q1 1 1.5 3t0.5 4v589q0 4 -2 7t-5 5t-7 2h-436v42h436q23 0 39.5 -16.5t16.5 -39.5v-589q0 -23 -16.5 -39.5t-39.5 -16.5h-187zM600 -49v2q0 105 -74.5 179.5t-179.5 74.5t-179.5 -74.5t-74.5 -179.5v-2h-46v2q0 100 61 180
t158 108q-57 24 -92 76.5t-35 114.5q0 28 7.5 55t21 50t32.5 42t42 32.5t50 21t55 7.5q56 0 104 -27.5t76 -75.5t28 -105q0 -12 -1.5 -24.5t-4.5 -24t-7 -23t-9.5 -22t-12.5 -21t-14.5 -19.5t-16.5 -17.5t-18.5 -15.5t-20.5 -13t-22 -11q97 -28 158 -108t61 -180v-2h-46z
M346 595q-44 0 -81.5 -22t-59.5 -59.5t-22 -81.5q0 -67 48 -115t115 -48t115 48t48 115q0 44 -22 81.5t-59.5 59.5t-81.5 22zM660 202v46h219v-46h-219zM583 343v47h296v-47h-296zM583 476v47h296v-47h-296z" />
    <glyph glyph-name="uniE612" unicode="&#xe612;" horiz-adv-x="1025" 
d="M951 461l-2 1l-382 337q-23 22 -55 22t-55 -22l-384 -338q-17 -18 -21.5 -42t5.5 -47q9 -21 27 -34q21 -15 46 -15h10v-294q0 -33 23.5 -56.5t57.5 -23.5h135q33 0 56.5 23.5t23.5 56.5v167h150v-167q0 -33 23.5 -56.5t56.5 -23.5h135q17 0 31.5 6.5t25.5 17t17 25.5
t6 31v294h13q12 0 24 4t22 11q9 6 16 15t11 19q10 23 5.5 47t-21.5 42zM894 374h-64v-345q0 -8 -3.5 -14.5t-10.5 -10.5t-15 -4h-135q-8 0 -14.5 4t-10.5 10.5t-4 14.5v218h-252v-218q0 -12 -8.5 -20.5t-20.5 -8.5h-135q-12 0 -20.5 8.5t-8.5 20.5v345h-62q-19 0 -26.5 18.5
t6.5 32.5l381 337q3 2 6.5 4t7 3t7.5 1q12 -1 20 -8l382 -337q8 -10 8.5 -21.5t-8 -20.5t-20.5 -9z" />
    <glyph glyph-name="uniE613" unicode="&#xe613;" 
d="M677 375q34 26 59 60.5t38.5 76.5t13.5 86q0 113 -81 194.5t-195 81.5q-74 0 -138 -37.5t-101 -101t-37 -137.5q0 -44 13.5 -85.5t38.5 -76t59 -61.5q-145 -50 -235 -177t-90 -284q0 -2 1 -5t2 -5t3 -4t4 -3t5 -2t5 -1h937q6 0 10.5 3t7.5 7.5t3 9.5q0 62 -14.5 122
t-43 112t-68 96t-90 77.5t-107.5 53.5zM65 -66q6 149 99.5 264t238.5 150l4 2q2 1 3.5 2t2.5 2.5t2 3.5l2 4l2 4q0 13 -12 20q-3 2 -10 6q-7 3 -10 5q-51 34 -80 86t-29 112q0 98 69 167t167 69q97 0 166.5 -68.5t69.5 -167.5q0 -44 -15.5 -84.5t-44.5 -72.5t-69 -52
q-11 -7 -11 -20q0 -14 16 -18q144 -36 237.5 -151t100.5 -263h-899z" />
    <glyph glyph-name="uniE614" unicode="&#xe614;" 
d="M526 302q-113 0 -209 -57.5t-153.5 -156.5t-60.5 -216h846q-2 59 -18.5 114.5t-44 103t-66.5 87t-84.5 67t-99.5 43t-110 15.5zM777 599q0 67 -33.5 124.5t-91.5 91t-126 33.5q-51 0 -98 -19.5t-80.5 -53t-53.5 -80t-20 -96.5q0 -104 74 -177t178 -73t177.5 73t73.5 177z
M525.5 302q112.5 0 209 -57.5t153.5 -156.5t61 -216h46q-4 163 -100.5 289.5t-243.5 168.5q78 36 125.5 108.5t47.5 160.5q0 122 -87.5 209t-210.5 87q-81 0 -150 -40t-109 -108t-40 -148q0 -88 47.5 -160.5t125.5 -108.5q-147 -42 -243 -168.5t-101 -289.5h47
q3 117 60.5 216t153.5 156.5t208.5 57.5zM274 599q0 67 33.5 124.5t91.5 91t127 33.5q104 0 177.5 -73t73.5 -176q0 -51 -19.5 -97t-53.5 -79.5t-80.5 -53.5t-97.5 -20q-104 0 -178 73t-74 177z" />
    <glyph glyph-name="uniE615" unicode="&#xe615;" 
d="M318 606q-6 5 -8 12t0 14.5t8 12.5q8 8 19.5 8t19.5 -8l358 -358l-343 -342l-14 -14q-8 -8 -19.5 -8t-20 8t-8.5 19.5t9 19.5l317 318z" />
    <glyph glyph-name="uniE616" unicode="&#xe616;" 
d="M959 406l-308 47l-139 295l-139 -295l-308 -47l223 -228l-53 -324l277 153l277 -153l-53 324zM512 72l-208 -117l40 235l-179 182l242 32l105 224l104 -224l241 -34l-177 -181l37 -235z" />
    <glyph glyph-name="uniE617" unicode="&#xe617;" 
d="M965 150q-1 82 -80 191q16 41 -21 117q-1 35 -15.5 75.5t-23.5 56.5t-15 25q-91 135 -273 135q-53 0 -88 -10q-41 -8 -76 -26t-58.5 -40t-42 -50t-29 -51.5t-18 -49t-10 -38.5t-3.5 -25q-7 -10 -12 -23t-8.5 -25t-6 -24.5t-3.5 -21t-2 -16.5q-28 -23 -90 -115
q-19 -34 -26 -67t-5.5 -54.5t8.5 -41t11.5 -26t7.5 -10.5q3 -3 6.5 -5t8.5 -2q28 0 60 45q18 -45 51 -81q-18 -6 -30 -13q-1 -1 -2.5 -2t-2.5 -3q-31 -38 -18 -73q4 -9 10.5 -17.5t15 -14.5t17.5 -11t19.5 -9t18.5 -6.5t16.5 -4.5t12.5 -3t7 -1q20 -4 40.5 -6t40.5 -2
q101 0 176 44l60 -16q71 -21 131 -21q24 0 45.5 3.5t36.5 8t28.5 11.5t22 12.5t15 11.5t8.5 8.5t3 4.5q2 2 3 5q8 22 -3 44q-8 16 -25 29t-37 23q21 27 38 67l15 -28q2 -4 5.5 -6.5t7.5 -3.5q33 -7 54 16q13 15 19.5 41.5t5 44t-0.5 24.5zM913 66q-4 -4 -10 -5l-31 57
q-6 11 -18.5 9.5t-16.5 -13.5q-2 -6 -3 -9.5t-7.5 -20t-12.5 -29t-16.5 -28t-21.5 -25.5q-8 -8 -6 -18.5t13 -14.5q11 -3 23.5 -9.5t25 -16t16.5 -17.5q3 -6 2 -12q-7 -7 -17.5 -15t-41 -17t-67.5 -9q-55 0 -121 19l-68 18q-9 2 -16 -3q-6 -4 -20 -11.5t-56 -19t-86 -11.5
q-9 0 -18.5 0.5t-18.5 1.5t-18.5 2.5t-19.5 3.5q-24 3 -52.5 15t-34.5 28q-5 13 10 32q26 13 47 14q13 1 17.5 14t-6.5 21q-7 5 -17.5 15t-31 43.5t-28.5 69.5q-1 4 -3 7t-5.5 5t-7.5 3q-14 2 -20 -10q-9 -18 -21 -34.5t-20 -23.5q-31 61 14 143q62 93 82 106q11 4 12 17
l3 20q1 12 4.5 27.5t9 31.5t12.5 26q2 2 2.5 4.5t0.5 5.5q1 3 1.5 9t3.5 21t7 30t12.5 35t19 38t26.5 37t35 34t46 27.5t57 18.5q27 8 80 8q162 0 241 -117q4 -6 13 -22t21.5 -52t12.5 -66q0 -2 0.5 -3.5t1 -2.5t0.5 -3q14 -27 20.5 -55t-0.5 -38q-10 -12 0 -25q1 -2 2.5 -4
t7 -10t10.5 -15.5t12.5 -19.5t13.5 -23.5t12.5 -25.5t10.5 -27t7 -27.5t3 -26.5q1 -8 1 -19.5t-1 -23t-4.5 -22.5t-8.5 -17z" />
    <glyph glyph-name="uniE618" unicode="&#xe618;" 
d="M886 660q-5 -59 -5 -63q-2 -16 -4.5 -45t-3.5 -38q0 -3 -1 -13.5t-1.5 -14.5t-1.5 -13t-1.5 -14.5t-1 -13t-1 -14.5t-1.5 -13q-1 -16 -4 -47t-4 -47q-2 -17 -4.5 -49t-4.5 -46q-1 -14 -3.5 -41.5t-3.5 -41.5q-2 -21 -9 -95q-2 -31 -3 -35q-1 -14 -10.5 -19t-21.5 0
q-13 6 -77 36q-8 4 -32.5 15.5t-36 17t-31.5 15t-36 17t-32 15.5q-5 2 -9 -2q-36 -46 -132 -166q-5 -7 -11 -9.5t-12 -1t-11 6.5q-2 2 -3.5 5.5t-2.5 7.5q-2 16 -9 88q-6 61 -10 96q-5 58 -7 75q0 2 -0.5 4t-2 3t-4.5 2q-4 2 -240 103q-6 3 -10 7t-5 11q-1 5 0.5 9.5t5 8
t9.5 5.5q23 10 91 38q111 46 332.5 138t332.5 138q9 3 15.5 2.5t11.5 -6.5q7 -6 6 -16zM840 616h-2q-52 -58 -178.5 -199t-195.5 -217q5 -2 5 -3q9 -4 21 -9.5t21 -10t20.5 -10t21.5 -9.5q26 -12 229 -108l6 -2q10 108 28 305.5t24 262.5zM158 346q3 -2 4 -2
q165 -71 205 -88q3 -2 7 1q63 55 385 335q1 0 4 3q0 1 -1 1q-132 -55 -604 -250zM403 49h1v2l1 3q2 10 7.5 34t8.5 38t7 34t8 36l5 10q84 94 326 363q1 0 2 2l1 1q-2 -1 -4 -3q-63 -54 -129 -111t-142 -123q-78 -68 -108 -94q-3 -3 -3 -5q2 -13 6 -61q9 -87 10 -97
q0 -1 3 -29zM421 28h1q13 17 46 58t51 63q-47 24 -65 32z" />
    <glyph glyph-name="uniE619" unicode="&#xe619;" 
d="M697 676q-32 0 -62 -12.5t-53.5 -34t-39.5 -40t-29 -38.5q-13 20 -28.5 38.5t-39 40t-53.5 34t-62 12.5q-98 0 -167.5 -76.5t-69.5 -184.5q0 -51 30 -114t72 -101q36 -46 108.5 -113.5t135 -115t75.5 -47.5q22 0 141.5 101.5t175.5 173.5q28 25 51.5 63t37 79t13.5 74
q0 108 -69 184.5t-167 76.5zM878 415q0 -27 -11.5 -60t-31.5 -64.5t-43 -51.5q-1 -1 -1.5 -2t-1.5 -2q-46 -60 -127 -130.5t-148 -118.5q-193 141 -276 250q-2 1 -4 3q-34 31 -59.5 83t-25.5 93q0 85 53 145.5t128 60.5q30 0 61.5 -21t55.5 -51t41 -67q7 -14 25 -14t26 14
q17 37 41 67t55.5 51t61.5 21q75 0 128 -60.5t53 -145.5z" />
    <glyph glyph-name="uniE61A" unicode="&#xe61a;" 
d="M512 831q-73 0 -141.5 -22.5t-123.5 -64t-96.5 -97t-64 -123.5t-22.5 -141q0 -61 16 -118.5t45 -106.5t70.5 -90.5t90 -70t106.5 -44.5t118 -16q92 0 175 35.5t143.5 95t96 142t35.5 173.5q0 46 -9 90t-26 84t-41.5 76t-55 66.5t-66.5 55t-76 41.5t-84 26t-90 9zM751 587
l-142 -290q-2 -4 -3.5 -6t-4 -4t-5.5 -3l-287 -138q-1 -1 -3 -2h-2l-4 -2h-2q-13 0 -21 8q-16 13 -6 33l140 292q3 10 13 13l288 136q20 10 33 -6q7 -7 8.5 -16t-2.5 -15zM512 440q-24 0 -40.5 -16.5t-16.5 -40.5t16.5 -40.5t40.5 -16.5q23 0 40 16.5t17 40.5t-17 40.5
t-40 16.5z" />
    <glyph glyph-name="uniE61B" unicode="&#xe61b;" 
d="M936 378q-26 50 -89 65q-15 4 -46.5 4.5t-56 -0.5t-49.5 -2q11 105 10 155q-3 75 -31 107q-9 10 -21 17t-26.5 10t-32.5 3q-45 0 -72 -27q-17 -17 -25.5 -46t-9.5 -48t0 -50v-22q-3 -85 -105 -129q-51 -23 -106 -29h-148q-21 0 -35.5 -15t-14.5 -36v-425
q0 -21 14.5 -35.5t35.5 -14.5h164v497q55 9 102 29q120 53 124 157v23q-1 28 0 44.5t7 41t19 37.5q9 9 21.5 13t28.5 4q20 0 34 -4.5t23 -14.5q22 -25 23 -94.5t-11 -162.5l-2 -19l18 2q123 9 160 0q50 -12 70 -49q15 -29 12 -72t-24 -100q-46 -121 -115 -243
q-17 -31 -57 -54l-335 -5v-30l343 5l3 1q3 1 6.5 3.5t13 9t18 14t18.5 19t17 22.5q70 124 117 248q47 126 10 196zM261 -110h-133q-8 0 -13.5 6t-5.5 14v425q0 9 5.5 14.5t13.5 5.5h133v-465z" />
    <glyph glyph-name="uniE61C" unicode="&#xe61c;" 
d="M507.5 110q72.5 0 124 53t51.5 128q0 49 -23.5 91t-64 66t-88.5 24q-72 0 -123.5 -53t-51.5 -128t51.5 -128t124 -53zM507 430q22 0 42.5 -7t36.5 -20t28.5 -30t19 -38t6.5 -44q0 -37 -17.5 -69t-48.5 -51t-67 -19t-66.5 19t-48.5 51t-18 69q0 19 5 37t13.5 33t21 28
t27 22t31.5 14t35 5zM4 289q63 -162 201.5 -258.5t306.5 -96.5t306.5 96.5t201.5 258.5l3 8l-3 7q-63 162 -201.5 259t-306.5 97t-306.5 -97t-201.5 -259l-3 -7zM512 617q153 0 279.5 -87t186.5 -233q-60 -147 -186.5 -234t-279.5 -87t-279.5 87t-185.5 234q29 72 77 132
t108.5 101.5t132 64t147.5 22.5z" />
    <glyph glyph-name="uniE61D" unicode="&#xe61d;" 
d="M229 498h-107h-2h-3q-15 0 -26 -11t-11 -28v-467q0 -16 10.5 -27.5t26.5 -11.5q3 0 6 1h106v544zM957 482q-15 25 -38.5 39.5t-51.5 15.5h-5l-208 1q3 10 6 21t5.5 22t4.5 22t3 23l2 22q1 12 1 24q0 23 -2.5 45t-7.5 44q-6 25 -21 45t-37.5 31.5t-47.5 11.5
q-12 0 -24.5 -3t-23 -8.5t-20 -13.5t-17 -18t-12.5 -21t-8 -23.5t-3 -26.5v-10q-2 -73 -43 -131.5t-106 -81.5v-558l485 -1q32 0 59 18q26 17 40 46q1 1 2 3t1.5 4t1.5 5l80 371q2 6 2 13q2 38 -17 69z" />
    <glyph glyph-name="uniE61E" unicode="&#xe61e;" 
d="M512 812q-104 0 -199 -40.5t-163.5 -109t-109 -163.5t-40.5 -199q0 -83 26 -161.5t73 -141.5t110 -110t141.5 -73t161.5 -26q104 0 199 40.5t163.5 109t109 163.5t40.5 199q0 52 -10.5 103t-29.5 96.5t-47.5 87t-62.5 75.5t-75.5 62.5t-87 47.5t-96.5 29.5t-103 10.5z
M512 -165q-95 0 -181 36.5t-148.5 99t-99 148.5t-36.5 181q0 63 16.5 123.5t46.5 111.5t73 94t94 73t111.5 46.5t123.5 16.5q95 0 181 -36.5t148.5 -99t99 -148.5t36.5 -181t-36.5 -181t-99 -148.5t-148.5 -99t-181 -36.5zM768 300h-233v303q0 9 -6.5 16t-16.5 7
q-6 0 -11.5 -3t-8.5 -8.5t-3 -11.5v-326q0 -10 6.5 -17t16.5 -7h256q10 0 16.5 7t6.5 16.5t-6.5 16.5t-16.5 7z" />
    <glyph glyph-name="uniE61F" unicode="&#xe61f;" 
d="M499 467q20 0 32 12t12 32q0 10 -3.5 18t-9 13.5t-13.5 9t-18 3.5q-21 0 -37 -12.5t-16 -31.5q0 -4 1 -7l2 -8q1 -3 3 -6t5 -6t6 -5l6 -4q3 -2 6.5 -3.5t7.5 -2.5t8 -1.5t8 -0.5zM253 555q-21 0 -37 -12.5t-16 -31.5t16 -31.5t37 -12.5q20 0 32 12t12 32q0 13 -5.5 23
t-15.5 15.5t-23 5.5zM1024 186q0 104 -84 182t-203 87v3v3q-24 111 -130 185t-240 74q-151 0 -259 -92q-103 -88 -108 -212v-11q0 -142 138 -243l-32 -94q-1 -3 -0.5 -6t1.5 -6t4 -5q2 -2 5 -3t5 -1q4 0 8 2l117 59l15 -3q18 -4 27.5 -6t24 -4t27.5 -3t27 -1h11q6 0 12 0.5
t11 0.5q3 0 5 1t3.5 2t2.5 3q33 -81 114.5 -132t183.5 -51q37 0 103 17l91 -50q2 -1 3.5 -1.5t3.5 -0.5l11 3q8 7 5 18l-23 77q120 95 120 208zM399 124q-16 -1 -32 -1q-13 0 -25 1t-25.5 3t-23 3.5t-26.5 5.5l-20 4q-5 1 -10 -1l-88 -45l23 69q0 2 0.5 4.5t0 4t-1.5 3.5
t-2.5 3.5t-2.5 3.5q-134 93 -134 223q0 77 45 142t122 103t168 38q60 0 117.5 -17.5t102 -48.5t76 -74t42.5 -92q-63 0 -120.5 -22t-99 -58t-66 -86t-24.5 -104q0 -11 1 -21.5t3 -20.5t5 -21q-4 1 -5 1zM875 -4q-8 -6 -5 -17l15 -50l-62 34q-2 1 -4 1.5t-4 0.5t-4 -1
q-67 -17 -101 -17q-117 0 -200 70t-83 169q0 39 14.5 75.5t40.5 65.5t61 51.5t78 34.5t89 12q56 0 108 -19.5t90 -51.5t61 -76t23 -92q0 -49 -30 -98t-87 -92zM613 300q-13 0 -24 -11t-11 -24t11 -24t24 -11q19 0 31.5 10.5t12.5 24.5t-12.5 24.5t-31.5 10.5zM806 300
q-13 0 -24 -11t-11 -24t11 -24t24 -11q19 0 31.5 10.5t12.5 24.5q0 23 -26 32q-9 3 -18 3z" />
    <glyph glyph-name="uniE620" unicode="&#xe620;" 
d="M510 242q-15 0 -28.5 -8t-21.5 -21.5t-8 -29.5q0 -26 19 -43v-54q0 -16 11.5 -27.5t27.5 -11.5t27.5 11.5t11.5 27.5v54q4 3 7 7t5.5 8t4 8.5t2.5 9.5t1 10q0 25 -17 42t-42 17v0zM783 417h-39v97q0 97 -68.5 165t-165 68t-165 -68t-68.5 -165v-97h-39q-26 0 -48.5 -13
t-35.5 -35.5t-13 -49.5v-369q0 -40 28.5 -68.5t68.5 -28.5h545q26 0 48.5 13t35.5 35.5t13 48.5v369q0 16 -5 31t-14 27t-21 21t-27 14t-30 5v0zM510 708q81 0 138 -57t57 -137v-97h-389v97q0 23 5 44.5t14.5 41t23 36t30.5 30t36 23t41 14.5t44 5v0zM841 -50
q0 -10 -3 -18.5t-8.5 -16t-12.5 -12.5t-16 -8t-18 -3h-545q-24 0 -41 17t-17 41v369q0 16 7.5 29.5t21 21.5t29.5 8h545q24 0 41 -17t17 -42v-369v0zM841 -50z" />
    <glyph glyph-name="uniE621" unicode="&#xe621;" 
d="M512 -55q-13 0 -25 4.5t-21 12t-14 17.5t-5 22q0 22 19 38.5t46 16.5t46 -16.5t19 -39t-19 -39t-46 -16.5zM512 25q-12 0 -20.5 -7.5t-8.5 -17.5t8.5 -17t20.5 -7t20.5 7t8.5 17t-8.5 17.5t-20.5 7.5zM280 79v638h464v-638h-464zM708 686h-392v-576h392v576zM720 -97
h-417q-38 0 -66 23.5t-28 56.5v802q0 33 28 56.5t66 23.5h417q39 0 67 -23.5t28 -56.5v-802q0 -33 -28 -56.5t-67 -23.5zM778 785q0 13 -8 24.5t-21 18t-29 6.5h-417q-23 0 -40 -14.5t-17 -34.5v-802q0 -20 17 -34.5t40 -14.5h417q24 0 41 14.5t17 34.5v802zM555 760h-86
q-3 0 -5 1t-4 2.5t-3 4.5t-1 5q0 4 2 7.5t4.5 5t6.5 1.5h86q5 0 9 -4t4 -9.5t-4 -9.5t-9 -4z" />
    <glyph glyph-name="uniE622" unicode="&#xe622;" 
d="M57 699v-798q0 -23 16.5 -39.5t39.5 -16.5h798q23 0 39.5 16.5t16.5 39.5v798q0 9 -3 17.5t-8 15.5t-12 12t-15.5 8t-17.5 3h-798q-15 0 -28 -7.5t-20.5 -20.5t-7.5 -28zM0 699q0 47 33 80t80 33h798q47 0 80 -33t33 -80v-798q0 -18 -5.5 -35.5t-16 -31.5t-24.5 -24.5
t-31.5 -16t-35.5 -5.5h-798q-30 0 -56.5 15t-41.5 41.5t-15 56.5v798z" />
    <glyph glyph-name="uniE623" unicode="&#xe623;" 
d="M863 619q-102 47 -207.5 88t-142.5 41q-26 0 -93.5 -23.5t-132 -50.5t-125.5 -55q-11 -5 -19 -14t-12.5 -20t-4.5 -23q4 -192 59 -331q28 -70 67 -132.5t75.5 -104t73.5 -73.5t63.5 -47.5t42.5 -19.5q3 -1 5.5 -1t5.5 1q23 6 61 33.5t84.5 72.5t94.5 117t81 154
q55 138 59 331q0 11 -4.5 22.5t-13 21t-17.5 13.5zM799 247q-30 -76 -74 -143t-86 -108.5t-74.5 -66t-52.5 -32.5q-15 6 -38 21t-56.5 45t-65.5 68t-66.5 95t-60.5 121q-52 132 -56 316q0 12 11 17q116 54 211.5 90t121.5 36t121 -36t211 -89q3 -2 6.5 -8t3.5 -10
q-1 -78 -14 -160.5t-42 -155.5zM522 464h-20q-10 0 -10 -11v-223q0 -11 10 -11h20q11 0 11 11v223q0 11 -11 11zM512.5 179q-8.5 0 -14.5 -6t-6 -14.5t6 -14.5t14.5 -6t14.5 6t6 14.5t-6 14.5t-14.5 6z" />
    <glyph glyph-name="uniE624" unicode="&#xe624;" horiz-adv-x="1600" 
d="M1064 396zM811 179zM0 -115l1 -1q-1 0 -1 1zM423 -116l1 1q0 -1 -1 -1zM1487 381q1 -7 -7 -11q-65 -27 -123.5 -70.5t-102.5 -92t-89 -110.5q-70 -99 -123 -216q-8 -17 -20 -5q-59 58 -263 258q-29 29 -38 37q-11 12 2 19q63 29 99 49q17 9 32 -6q19 -19 42 -41.5t39 -38
t43 -43.5l40 -39q12 -11 15 -10.5t8 16.5q27 77 96 194q107 179 275 405q0 1 2 4.5t4 5t4.5 0.5t3.5 -3t1 -5v-5q15 -70 59 -288q1 -1 1 -3v-1z" />
    <glyph glyph-name="uniE625" unicode="&#xe625;" 
d="M694 421q34 63 -1 98q-4 5 -9 8.5t-11 6t-12.5 4.5t-14 2.5t-15.5 0.5q-44 0 -96 -23h-1v1v1q2 7 3 13v3q0 32 -13 53q-3 7 -8.5 12t-13 10t-18.5 8t-24 3t-27.5 -3t-31.5 -8q-29 -10 -60 -30.5t-52.5 -40t-42.5 -42.5t-28 -32.5t-12 -15.5q-28 -38 -41.5 -78t-14 -54
t0.5 -23q10 -87 83.5 -137.5t205.5 -60.5q14 -1 30 -1q97 0 188.5 41.5t125.5 113.5q7 15 10 29.5t1.5 28.5t-7.5 28q-22 50 -94 84zM752 266q-29 -62 -112.5 -98.5t-169.5 -36.5q-14 0 -27 1q-46 4 -85.5 13.5t-78 27.5t-63.5 50.5t-29 75.5q-1 6 -0.5 18t12.5 45.5
t36 66.5q3 4 10 12.5t26 30t39 40t48.5 37.5t54.5 28q14 4 25.5 6.5t21.5 2.5q18 0 29.5 -9.5t11.5 -38.5q-1 -4 -2 -10q-6 -28 2 -39q13 -15 46 -5l2 1q46 21 82 21q13 0 22 -3t15 -9q9 -8 6 -23.5t-9 -27.5t-12 -20l-15 -20l24 -8q23 -8 52.5 -27.5t40.5 -44.5
q11 -27 -3 -57zM880 607q-20 34 -55 59t-77 35q-7 2 -15 3t-16.5 1.5t-17 0.5t-17.5 -1t-18.5 -2t-19.5 -3q-2 -1 -4 -3t-5 -7.5t-1.5 -11.5t6 -9t7.5 -4h4q51 10 89 1q7 -2 15 -4.5t21.5 -8.5t25.5 -14t25 -21.5t22 -28.5q17 -29 19.5 -65t-10.5 -78q-1 -3 -1 -7t2.5 -8.5
t6.5 -6.5t9 -2h14l3 12q30 100 -12 173zM667 600q-2 -1 -4.5 -2t-4.5 -3t-3.5 -4.5t-1.5 -5.5v-6q1 -7 7.5 -11.5t13.5 -2.5q4 0 13 1t26.5 -3t28.5 -14q7 -7 12 -17.5t6 -24t-1 -30.5q0 -3 0.5 -5.5t1.5 -4.5t3 -3l2 -4q2 -1 4.5 -2t4.5 -1h2q7 0 12 4.5t6 11.5
q4 34 -3.5 60t-25.5 43q-7 6 -15 11t-16 7.5t-16 4.5t-15.5 2.5t-13.5 0.5t-11.5 -0.5t-7.5 -1t-4 -0.5zM500 365q-14 -12 -17.5 -31t4.5 -34q5 -10 13.5 -15.5t19.5 -5.5q4 0 7.5 1t7.5 2.5t7.5 3.5t6.5 5q13 13 17 31t-3 34q-9 17 -28 20t-35 -11zM525 318l-5 -3l-1 1
q-2 4 -1 11t5 11q4 3 6 3q1 0 2 -2t1 -6t-2 -8.5t-5 -6.5zM468 433q-10 0 -18 -1q-89 -4 -151 -46t-62 -101q0 -56 57.5 -94t140.5 -38h15q87 4 150 51t63 107q0 55 -56 88.5t-139 33.5zM339 250q0 7 1 14t4 15.5t12.5 15t24.5 7.5q4 1 9 1q21 0 29 -16q5 -10 4.5 -20
t-4.5 -15q-7 -11 -19 -17t-25 -6q-8 0 -15.5 2.5t-15.5 6.5q-4 2 -4 8v1zM448 189h-13q-27 0 -53 5q42 3 66 37q7 9 10 23t0 28.5t-10.5 27.5t-22.5 21t-35 8q-4 0 -7 -0.5t-7 -0.5q-23 -3 -39 -13.5t-22 -23.5t-9 -25.5t-3 -20.5l1 -9q-1 -11 5 -22q-17 13 -26.5 28.5
t-9.5 32.5q0 43 52.5 75.5t126.5 35.5q8 1 16 1q69 0 114 -24.5t45 -61.5q0 -16 -8.5 -33t-24.5 -32t-37.5 -27.5t-49.5 -20.5t-59 -9z" />
    <glyph glyph-name="uniE626" unicode="&#xe626;" 
d="M343 -137q-2 0 -4 1h-4q-2 1 -3.5 1.5t-3.5 2.5l-2 2q-5 5 -6.5 11t0 12t6.5 11l376 376l-402 402q-7 7 -7 17t7 17q5 4 11 6t12.5 0t10.5 -6l436 -436l-411 -410q-7 -7 -16 -7z" />
    <glyph glyph-name="uniE627" unicode="&#xe627;" 
d="M454 753q-106 0 -195.5 -52.5t-142 -142.5t-52.5 -195.5t52.5 -195.5t142 -142.5t195.5 -52.5t196 52.5t142.5 142.5t52.5 195q0 46 -10.5 90t-30 82t-46 72t-60.5 61t-72.5 46t-82 29.5t-89.5 10.5zM454 18q-93 0 -172.5 46t-125.5 125.5t-46 172.5q0 70 27.5 134
t73.5 110t109.5 73.5t133.5 27.5q47 0 91.5 -12.5t82.5 -34.5t69.5 -54t54 -70t35 -82.5t12.5 -91.5q0 -139 -97 -239q-96 -99 -234 -105h-14zM953 -103l-207 206q-7 7 -16.5 7t-15.5 -7q-5 -4 -6.5 -10t0 -12t6.5 -10l206 -207q7 -7 16.5 -7t16 7t6.5 16.5t-6 16.5z" />
    <glyph glyph-name="uniE628" unicode="&#xe628;" 
d="M957 508l-445 -448l-448 446l32 32l415 -413l414 415zM957 508z" />
    <glyph glyph-name="uniE629" unicode="&#xe629;" 
d="M888 630h-752q-30 0 -51 -21t-21 -51v-349q0 -30 21 -51t51 -21h752q19 0 36 9.5t26.5 26t9.5 36.5v349q0 30 -21 51t-51 21zM323 270h-51l-98 189v-188h-31v224h46l100 -194h3v195h31v-226zM527 399v-30l-125 -1v-6q0 -60 37 -60h88v-30h-88q-10 0 -18.5 2t-16 7
t-13.5 12q-20 23 -20 69v53q0 36 20 56t48 25h2q13 2 86 1v-31q-69 1 -83 0q-9 -2 -17 -5.5t-16.5 -15.5t-8.5 -30v-16h125zM816 270h-46l-46 180l-50 -180h-48l-65 226h33l58 -185l2 1l52 185h38l50 -195l60 194h32zM816 270z" />
    <glyph glyph-name="uniE62A" unicode="&#xe62a;" 
d="M660 513q-1 -13 -3 -25.5t-5.5 -23.5t-7.5 -22t-9 -20t-9.5 -17t-9 -14t-7.5 -10.5t-5 -6.5l-2 -3q0 29 -6 59t-16 54.5t-21.5 47.5t-23.5 39.5t-21.5 29.5t-15.5 20l-7 6v-9q0 -7 -3.5 -26t-9 -38.5t-17 -46t-27.5 -50.5q-15 56 -44 108.5t-58.5 88.5t-58 63.5t-45 40
t-17.5 12.5q24 -88 29.5 -164.5t-3 -137t-20.5 -113t-23 -117t-11 -123.5q0 -40 12.5 -78.5t37.5 -71.5t58.5 -58t78 -39t93.5 -14q73 0 128 11t88 28t56.5 45t34 54t19.5 62q26 108 -9 229t-120 230zM735 68l-6 -22q-2 -8 -7 -22.5t-10 -22.5t-13.5 -20t-19 -19.5
t-25 -16.5t-33.5 -14t-42 -10.5t-52 -7.5t-64 -2q-100 0 -162 62t-62 142q0 76 28 206q4 19 6.5 28.5t6 28t5.5 30t4.5 29.5t4 31.5t3 31.5t1.5 34v35q0 19 -2 37q39 -54 68 -125t40 -115l10 -44q80 116 102 169q12 -26 22 -103.5t10 -161.5q8 7 22 20t48.5 54t59.5 83
q44 -81 59 -162.5t-2 -152.5zM672 289l-24 -28q-20 -23 -32 -36t-38.5 -33t-61.5 -38q-20 63 -20 124v49l-43 -68q-26 -42 -44 -68q-42 98 -60 149l-14 39l-14 -43q-12 -37 -18 -59t-12 -71t-6 -112q0 -6 4 -10.5t10 -4.5t10 4.5t4 10.5q0 71 6 116t17 83q18 -47 57 -137
l10 -22l15 20q25 36 52 78q4 -42 25 -102l5 -16l14 7q86 42 139 103q7 -88 -19 -154q-2 -5 0.5 -10.5t7.5 -7.5q1 -1 2 -1h3q10 1 13 9q17 41 21.5 95.5t-4.5 104.5z" />
    <glyph glyph-name="uniE62B" unicode="&#xe62b;" 
d="M245 506h-135q-13 0 -23 9.5t-10 23.5q0 9 4.5 16.5t12 12t16.5 4.5h135q14 0 23.5 -9.5t9.5 -23.5q0 -5 -1.5 -10.5t-4.5 -9.5t-7.5 -7t-9.5 -4.5t-10 -1.5zM203 356h-93q-13 0 -23 9.5t-10 23.5t10 23.5t23 9.5h93q14 0 23.5 -9.5t9.5 -23.5q0 -6 -1.5 -11t-4.5 -9
t-7 -7t-9 -4.5t-11 -1.5zM227 205h-117q-13 0 -23 10t-10 23.5t10 23.5t23 10h117q14 0 23.5 -10t9.5 -23.5t-9.5 -23.5t-23.5 -10zM339 55h-229q-13 0 -23 10t-10 23.5t10 23.5t23 10h229q14 0 23.5 -10t9.5 -23.5t-9.5 -23.5t-23.5 -10zM611 41q-127 0 -217 90t-90 217
t90 217t217 90t217 -90t90 -217q0 -121 -83 -209q-9 -10 -23 -10.5t-24 8.5t-10.5 23t8.5 24q21 22 35.5 48.5t22 56t7.5 59.5q0 99 -70.5 169.5t-169.5 70.5t-169.5 -70.5t-70.5 -169.5t70.5 -169.5t169.5 -70.5q52 0 99 21q6 3 13 3t13 -2t10.5 -6.5t7.5 -10.5
q6 -13 1 -26t-17 -18q-60 -28 -127 -28zM919 8q-6 0 -12.5 2.5t-11.5 8.5l-108 118q-9 10 -8 24t11 23t23.5 8.5t23.5 -10.5l107 -119q9 -10 8.5 -23.5t-10.5 -23.5q-10 -8 -23 -8z" />
    <glyph glyph-name="uniE62C" unicode="&#xe62c;" 
d="M973 410h-435v435q0 7 -3.5 13t-9 9t-13.5 3q-12 0 -19 -7t-7 -18v-435h-435q-11 0 -18 -7t-7 -19q0 -8 3 -13.5t9 -9t13 -3.5h435v-435q0 -11 7 -18t19 -7q8 0 13.5 3t9 9t3.5 13v435h435q11 0 18 7t7 19t-7 19t-18 7z" />
    <glyph glyph-name="uniE62D" unicode="&#xe62d;" 
d="M837 370v4v4q0 1 0.5 3.5t0.5 4.5v3v4q0 6 -1 23h94v-46h-94zM725 639l67 67l33 -33l-67 -67q-15 18 -33 33zM652 152v-248q0 -48 -34.5 -82t-82.5 -34h-46q-19 0 -37 6t-32 16.5t-25 25t-17 32t-6 36.5v248q-63 37 -101 101t-38 140q0 116 81.5 197.5t197.5 81.5
q45 0 88 -14t77 -39.5t60 -60t40 -77t14 -88.5q0 -119 -87 -202q-25 -23 -52 -39zM512 -165q39 0 66 27t27 66h-186q0 -39 27 -66t66 -27zM605 -26v47h-186v-47h186zM512 616q-93 0 -158 -65t-65 -158q0 -66 35.5 -121t94.5 -82v-11v-112h186v112v11q59 27 94.5 82t35.5 121
q0 93 -65.5 158t-157.5 65zM489 718v94h46v-94q-17 1 -23 1q-7 0 -23 -1zM199 673l33 33l67 -67q-9 -8 -17 -16t-16 -17zM93 370v46h94q-1 -16 -1 -23q0 -6 1 -23h-94z" />
    <glyph glyph-name="uniE62E" unicode="&#xe62e;" 
d="M546 508l-33 34v-1v1l-34 -34l-415 -415l33 -33l416 415l415 -415l33 33z" />
    <glyph glyph-name="uniE62F" unicode="&#xe62f;" 
d="M931 451zM322 617q-9 0 -16.5 -4.5t-11.5 -11.5t-4 -16v-722q0 -14 7 -16.5t16 6.5l241 227q6 6 14.5 8t17 0t14.5 -8l241 -227q6 -6 11.5 -7t8.5 3.5t3 13.5v722q0 13 -9 22.5t-23 9.5h-510zM290 617zM225 650q0 13 9.5 22.5t23.5 9.5h582v33q0 9 -4.5 16.5t-12 12
t-16.5 4.5h-615q-9 0 -16.5 -4.5t-11.5 -12t-4 -16.5v-786q0 -14 9.5 -23.5t22.5 -9.5h33v754z" />
    <glyph glyph-name="uniE630" unicode="&#xe630;" 
d="M528 435q-38 0 -61.5 -26t-23.5 -76q0 -40 20.5 -67.5t65.5 -27.5q43 0 62 31q10 16 15 33.5t5 37.5q0 22 -5.5 39t-17.5 30q-7 8 -16 14t-20.5 9t-23.5 3zM870 574h-716q-37 0 -63.5 -26t-26.5 -63v-269v-89h90h716q37 0 63.5 26t26.5 63v269q0 24 -12 45t-33 32.5
t-45 11.5zM370 216h-33v113h-124v-113h-33v241h33v-99h124v99h33v-241zM617 251q-11 -14 -25 -23t-30.5 -14t-36.5 -5q-56 0 -87 37q-15 18 -22 40t-7 49q0 49 25 84q11 16 26 26l1 1v1h1l1 1h1l1 1h1v1h1h1l1 1h1l1 1h1v1h1h1l1 1h1l1 1h1h1v1h1h1l1 1h1h1l1 1h1h1v1h1h1h1
l1 1h1h1h1h1l1 1h1h1h1h1v1h1h1h1h1h1h1l1 1h1h1h1h1h1l14 1q32 0 55.5 -10.5t38.5 -30.5q24 -32 24 -82q0 -18 -3 -34t-9 -30t-15 -26zM858 428h-81v-212h-33v212h-81v29h195v-29z" />
    <glyph glyph-name="uniE631" unicode="&#xe631;" 
d="M508 -63h-260q-78 0 -133 55t-55 132.5t55 132.5t133 55h42q13 0 22 10q5 4 7 10t1 13q-1 14 -1 28q0 121 85 206t206 85q69 0 130 -31q59 -29 100 -82q4 -5 9 -7.5t10.5 -3.5t11.5 0.5t11 5.5q9 7 10.5 19.5t-5.5 21.5q-12 16 -26 30t-29 26.5t-31.5 23.5t-33.5 20
q-74 37 -157 37q-145 0 -248 -103q-50 -50 -76.5 -114t-26.5 -134v-2h-11q-102 0 -174 -72q-72 -73 -73 -174q0 -102 72.5 -174.5t174.5 -72.5h260q6 0 11.5 2.5t9.5 6.5t6.5 9.5t2.5 11.5q0 3 -1 6.5t-2.5 6.5t-3.5 5.5t-4.5 4.5t-5.5 3.5t-6 2t-7 0.5zM734 320
q-48 0 -82.5 -34t-34.5 -83q0 -31 15.5 -58t42.5 -42.5t59 -15.5q48 0 82 34t34 82.5t-34 82.5t-82 34zM734 143q-25 0 -43 18t-18 42.5t18 42.5t43 18q16 0 30 -8t22 -22t8 -31q0 -24 -17.5 -42t-42.5 -18zM990 122v167q34 20 34 59q0 9 -2.5 17.5t-6.5 16t-10.5 13.5
t-13.5 10.5t-16 7t-18 2.5q-13 0 -25 -5t-21 -14l-109 63v4q0 28 -19.5 47.5t-47.5 19.5q-14 0 -26 -5.5t-21 -14t-14.5 -21t-5.5 -26.5v-4l-111 -64q-19 19 -47 19t-47.5 -19.5t-19.5 -46.5q0 -20 10.5 -36t26.5 -24v-165q-11 -5 -19 -14t-13 -21t-5 -25q0 -18 9 -33.5
t24.5 -24t33.5 -8.5q8 0 16 2t15 5.5t13 9.5l114 -66v-4q0 -28 19.5 -47.5t47.5 -19.5q7 0 13.5 1.5t12.5 4t11.5 6t10 8t8 10t6 11.5t4 12.5t1.5 13.5q0 2 -1 4l113 65q19 -17 43 -17q28 0 47.5 20t19.5 47q0 39 -34 59zM891 68l-119 -69q-17 11 -37 11t-37 -11l-122 70
q-3 37 -36 54v165q9 5 16.5 12t12.5 17t7 20l122 71q17 -11 37 -11q10 0 19.5 3t17.5 8l119 -69q3 -17 13.5 -31t26.5 -21v-163q-12 -5 -20.5 -13t-13.5 -19.5t-6 -23.5zM891 68z" />
    <glyph glyph-name="uniE632" unicode="&#xe632;" 
d="M274 747h474q38 0 65 -26q28 -26 28 -64v-776q0 -4 -1 -7.5t-3 -7t-5 -6t-6 -4.5t-7 -3t-8 -1q-5 0 -9.5 1t-8.5 4l-265 158q-4 2 -8.5 3.5t-8.5 1.5h-5l-4 -2q-2 0 -4.5 -1t-4.5 -2l-267 -159q-7 -4 -15 -4t-15 3.5t-11 10.5t-4 16v775q0 38 28 64q8 8 18.5 14t22 9
t24.5 3zM748 688h-474q-5 0 -9 -1.5t-8 -3.5t-7 -5q-2 -1 -3 -3t-2.5 -4t-2 -4.5t-1 -4.5t-0.5 -5v-723l221 132q23 13 49 13q12 0 24.5 -3.5t23.5 -9.5l222 -132v723q0 12 -9 21q-5 5 -11 7.5t-13 2.5zM358 508q-11 0 -19 9t-8 21q0 9 3.5 16t10 11t13.5 4h305q8 0 14 -4
t10 -11t4 -16q0 -12 -8 -21t-20 -9h-305z" />
    <glyph glyph-name="uniE633" unicode="&#xe633;" 
d="M528 585q26 -21 50 -46q62 -66 87 -140q35 -105 -18 -204q-12 -22 5 -41q11 -12 27 -12q3 0 7 0.5t7 2.5q8 3 17.5 9.5t19.5 14.5q-15 -42 -49 -76q-11 -12 -23.5 -21.5t-26.5 -17.5q7 64 -43 109q-11 10 -25 10q-6 0 -11.5 -2t-9.5 -5q-10 -7 -13.5 -18.5t0.5 -22.5
q-1 -8 -7 -14q-5 -4 -9 -4h-3q-6 1 -10 8q-4 9 -3 23q0 2 0.5 5t0.5 5l2 6q0 2 1 5l2 6q1 3 2.5 6t2.5 6t3 6q4 7 4 14.5t-2.5 14.5t-8.5 13q-10 11 -25 11q-9 0 -16 -4q-40 -20 -69 -54.5t-32 -78.5l-1 -2l-6 8q-19 26 -30 56q-10 32 -10 66v13q0 6 1 12t2 12.5t2.5 12.5
t3.5 12l4 12q14 34 38 62q8 8 31.5 30t38 37t36.5 41t36 55t20 59zM493 649q6 -36 -3.5 -70.5t-30.5 -63.5t-40.5 -50.5t-45 -45t-34.5 -32.5q-60 -69 -60 -160q0 -80 47 -143.5t122 -86.5q-55 31 -50 100q1 22 13.5 42.5t29.5 35t38 24.5q-18 -35 -18 -64.5t12.5 -45
t31.5 -18.5q4 -1 8 -1q28 0 43 25.5t7 41.5q39 -39 31.5 -84t-46.5 -65q92 11 160.5 80t68.5 159q0 9 -1 17l-2 18q-1 8 -3 16.5t-4 16.5t-5 16q3 -48 -26 -84.5t-57 -48.5q34 63 35.5 129.5t-21 119.5t-58.5 100t-73 77t-69 45z" />
    <glyph glyph-name="uniE634" unicode="&#xe634;" 
d="M954 410q-2 38 -11 75.5t-23.5 71.5t-34 65t-44 58.5t-53 50.5t-61 41t-67.5 31t-73 19.5t-77 6.5q-72 0 -139.5 -22.5t-122.5 -63.5t-96 -95.5t-63.5 -122.5t-22.5 -140q0 -45 9 -89.5t26 -83.5t41 -75t54 -66t66 -54.5t75.5 -41t83.5 -25.5t89 -9q61 0 118.5 16
t106 44.5t89.5 69.5t69.5 89.5t44.5 106.5t16 118v23v2zM134 225q-32 71 -33 148h150q0 -78 15 -149h-126zM523 595v197l-4 1q54 -7 102.5 -61t78.5 -137h-177zM712 558q21 -72 24 -148h-213v148h189zM486 793v-198h-167q28 82 72 135.5t95 62.5zM486 558v-148h-200
q2 38 7.5 75.5t14.5 72.5h178zM251 410h-149q6 76 40 148h129q-4 -18 -7.5 -35.5t-6 -36.5t-4 -38t-2.5 -38zM285 373h201v-149h-181q-19 72 -20 149zM486 187v-208q-52 14 -97.5 70t-72.5 138h170zM523 -24v211h184q-19 -60 -47 -107t-63.5 -74.5t-73.5 -29.5zM523 224v149
h213q-2 -77 -19 -149h-194zM770 373h150q-1 -16 -2 -31.5t-4 -30.5t-6.5 -29.5t-8.5 -29t-11 -28.5h-134q15 71 16 149zM769 410q-3 77 -20 148h127q36 -72 43 -148h-150zM855 595h-116q-34 111 -97 174q65 -25 120 -70t93 -104zM384 775q-67 -63 -103 -180h-119
q39 63 96.5 109.5t125.5 70.5zM153 187h122q16 -59 42 -106.5t59 -79.5q-47 17 -88.5 44.5t-76 63.5t-58.5 78zM639 -5q35 32 62.5 81.5t43.5 110.5h125q-37 -67 -97 -117.5t-134 -74.5z" />
    <glyph glyph-name="uniE635" unicode="&#xe635;" 
d="M821 356h-140v-197h140v197zM765 215h-28v85h28v-85zM906 525h-282v253q0 23 -16.5 39.5t-39.5 16.5h-450q-23 0 -39.5 -16.5t-16.5 -39.5v-788q0 -23 16.5 -39.5t39.5 -16.5h788q23 0 39.5 16.5t16.5 39.5v478q0 24 -16.5 40.5t-39.5 16.5zM568 468v-478h-450v788h450
v-310zM906 -10h-282v478h282v-478zM456 384h-225v-197h225v197zM400 243h-113v85h113v-85zM456 693h-225v-197h225v197zM400 553h-113v84h113v-84z" />
    <glyph glyph-name="uniE636" unicode="&#xe636;" 
d="M449 793q82 -50 136 -121q50 -65 77.5 -133.5t33.5 -140.5q2 -29 -1 -56.5t-10 -55.5q-2 -6 -4.5 -13t-5.5 -15q0 -2 -2 -7.5t-3 -8.5l-42 -122l99 83q24 20 63 75q1 2 3 4.5t2 3.5l2 3l1 2q9 19 15 33q3 -11 4.5 -22t2.5 -21v0v-1v-1v-3v-6v-6v-8q-1 -1 -1 -6v-1
q0 -31 -6.5 -61.5t-18.5 -58.5t-29 -52.5t-38 -46.5q-43 -42 -99 -66q-29 -12 -59.5 -18t-62.5 -6q-101 0 -182 59q-13 9 -25 19.5t-22.5 22t-20.5 24.5q-29 38 -44 82q-2 9 -6 28q-1 10 -2 15v37v4q1 7 2 13t2 11v1q10 56 50 112q3 5 6.5 9.5t7 9.5t6.5 8.5t7 9.5
q35 49 51 73t25 51q5 -36 -1 -87l-11 -112l74 85l1 1l7 8q87 119 61 256v0q-12 62 -43 113zM334 863q48 -42 53 -47q27 -30 44 -65.5t26 -77.5q11 -62 -3 -119t-52 -110l-3 -3l-3 -3q7 71 -4.5 124t-52.5 96l-3 3v-3q0 -1 1 -9t1 -18v-19q0 -9 -0.5 -17.5t-1.5 -17t-3 -17
t-4.5 -16.5t-5.5 -16t-7.5 -15.5t-9.5 -15.5q-10 -16 -23 -34.5t-29 -39.5t-25 -34q-21 -30 -35.5 -61.5t-20.5 -65.5q-1 -5 -5 -32v-44q1 -1 4 -20.5t6 -28.5q36 -103 126 -168t203 -65q94 0 174 46t127 125.5t47 173.5v5v28q-1 44 -18 89t-38 79q-1 1 -2 3l-3 3
q6 -49 0.5 -76.5t-28.5 -72.5q-2 -2 -5 -7q-37 -53 -57 -70q15 45 15 46q17 62 12 124q-12 155 -117 294q-64 84 -165 140q-18 10 -46.5 17t-48.5 10z" />
    <glyph glyph-name="uniE638" unicode="&#xe638;" 
d="M619 -90l47 196l161 161q54 53 84 108t38 96.5t2.5 82.5t-15 65t-23.5 44l39 39q5 5 6.5 11.5t0 13t-6.5 11.5t-11.5 6.5t-13 0t-11.5 -6.5l-38 -39q-16 11 -35 19t-49 16t-64 5.5t-73 -13t-85 -39.5t-91 -74l-161 -161l-196 -47q-7 -2 -12 -6.5t-6 -11.5
q-2 -4 -1.5 -8.5t2.5 -8.5t5 -8l114 -113l-63 -34q-11 -6 -13 -18q-1 -6 1 -12t6 -10l232 -232q9 -9 22 -7.5t18 13.5l34 63l114 -114q5 -5 11.5 -7t12.5 0q15 4 18 19zM863 648q5 -5 10.5 -13t14 -27.5t13 -40.5t3.5 -51.5t-11.5 -62t-36 -71.5t-65.5 -79l-164 -165
q-1 0 -1 -0.5t-1 -0.5l-108 -108l-119 119l108 108q8 8 8 18.5t-7.5 17.5t-18 7t-18.5 -7l-108 -108l-119 119l108 108l1 1l165 165q54 54 108.5 81.5t92 31t73 -6.5t49.5 -18.5t23 -16.5zM252 384l-45 -45l-27 27zM400 3l-183 183l47 25l161 -161zM553 -7l45 45l-17 -73z
M166 130q-5 5 -11.5 7t-13 0t-11.5 -7l-54 -53q-7 -8 -7 -18.5t7.5 -18t18 -7.5t17.5 8l54 53q5 5 6.5 11.5t0 13t-6.5 11.5zM255 41q-5 5 -11.5 6.5t-13 0t-11.5 -6.5l-53 -54q-18 -18 0 -36q5 -4 11.5 -6t13 0t10.5 6l54 54q7 8 7.5 18t-7.5 18zM344 -48q-2 2 -6 4
t-7.5 2.5t-7.5 0t-7.5 -2.5t-6.5 -5l-54 -53q-7 -8 -7 -18t7 -17.5t17.5 -7.5t18.5 7l53 54q8 7 8 17.5t-8 18.5zM564 531l2 -2q-21 -32 -21 -70t21 -69l-2 -2q-5 -5 -6.5 -11.5t0 -13t6.5 -11.5q7 -7 17.5 -7t18.5 7l1 2q21 -14 45.5 -18.5t49 0t45.5 18.5l2 -2
q4 -5 11 -6.5t13.5 0t11 6.5t6.5 11.5t0 13t-7 11.5l-1 2q20 31 20 69t-20 70v1q5 5 7 11.5t0 13t-7 10.5q-3 3 -6.5 5t-7.5 2.5t-7.5 0t-7.5 -2.5t-6 -5h-1q-32 21 -70 21t-70 -21l-1 2q-5 4 -11.5 6t-13 0t-11.5 -6q-8 -8 -8 -18.5t8 -17.5zM725 513q22 -22 22 -53.5
t-22 -53.5q-15 -15 -34.5 -20t-39 0t-33.5 20q-23 22 -23 53.5t23 53.5q14 14 33.5 19.5t39 0t34.5 -19.5z" />
    <glyph glyph-name="uniE639" unicode="&#xe639;" 
d="M896 710h-461q-15 0 -29.5 -6.5t-24.5 -16.5t-16.5 -24.5t-6.5 -29.5v-154q0 -10 7.5 -17.5t18.5 -7.5t18.5 7.5t7.5 17.5v154q0 10 7.5 17.5t17.5 7.5h387l-196 -84q-27 -11 -45 -38.5t-18 -56.5v-486h-128q-10 0 -17.5 7.5t-7.5 17.5v154q0 3 -1 6.5t-3 6.5t-4 5t-5 4
t-6.5 3t-6.5 1q-11 0 -18.5 -7.5t-7.5 -18.5v-154q0 -15 6.5 -29.5t16.5 -24.5t24.5 -16t29.5 -6h128v-77q0 -35 26 -52q13 -9 30 -9q4 0 9 1l8 2q5 1 10 3l264 113q27 12 45 39.5t18 55.5v615q0 15 -6 29.5t-16.5 24.5t-24.5 16.5t-30 6.5zM922 18q0 -13 -10 -27.5
t-22 -19.5l-264 -114q-7 -3 -9 -1q-1 0 -2 2.5t-1 6.5v614q0 14 10 28.5t22 19.5l273 117q1 -2 2 -5t1 -6v-615zM428 344l-154 153q-7 8 -18 8t-18.5 -7.5t-7.5 -18t8 -18.5l110 -110h-322q-7 0 -13 -3.5t-9.5 -9t-3.5 -12.5q0 -6 2 -10.5t5.5 -8t8 -5.5t10.5 -2h322
l-110 -110q-8 -7 -8 -18t7.5 -18t18.5 -7t18 7l154 154q7 7 7 17.5t-7 18.5z" />
    <glyph glyph-name="uniE63B" unicode="&#xe63b;" 
d="M948 18v1l-126 226q-4 7 -10 10.5t-13 3.5t-14 -3q-6 -4 -10 -10t-4 -13t4 -14l124 -224q6 -14 3 -19q-1 -1 -4 -1h-376l43 50q7 9 6 20t-9 19q-6 4 -13 5.5t-14 -1t-11 -7.5l-76 -89q-4 -5 -5.5 -12t1 -14t7.5 -12l89 -75q7 -6 17 -6q6 0 11.5 2t9.5 7q3 4 5 9.5
t1.5 10.5t-3 10t-6.5 8l-24 20h347q33 0 50 26q19 30 0 72zM678 393l-37 14q-5 2 -10.5 1.5t-10 -2.5t-8.5 -6t-6 -9q-4 -11 1 -21t15 -14l109 -41q2 -1 5 -1h4t8 1t7.5 3.5t6 5.5t4.5 7l40 109q4 10 -0.5 20.5t-15.5 14.5q-5 2 -10.5 1.5t-10 -2.5t-8.5 -6t-5 -9l-22 -56
l-174 313q-16 31 -45 31q-31 0 -49 -34l-102 -183q-6 -10 -3 -20.5t13 -16.5q5 -2 10.5 -3t10 0.5t9 5t7.5 8.5l103 183zM341 402q-1 6 -4.5 10t-7.5 7q-10 5 -21 2l-112 -32q-7 -2 -12 -7t-6.5 -12t0.5 -14q2 -9 9.5 -14.5t16.5 -5.5q4 0 7 1l52 15l-192 -342l-1 -3
q-2 -9 -3 -17.5t0.5 -16.5t4.5 -15.5t7 -13.5q18 -24 50 -24h204q12 0 20 8t8 19q0 8 -4 14t-10 10t-14 4h-204q-5 0 -6 2q-3 4 -1 13l186 331l13 -45q6 -20 26 -20q2 0 4 0.5t3 0.5q8 2 13 7.5t6.5 12t-0.5 14.5zM341 402z" />
    <glyph glyph-name="uniE63E" unicode="&#xe63e;" 
d="M903 749h-783q-15 0 -28 -7.5t-20.5 -20t-7.5 -28.5v-559q0 -23 16.5 -39.5t39.5 -16.5h308v-168h-112q-11 0 -19.5 -8t-8.5 -20q0 -4 1.5 -8.5t4 -8t6 -6t8 -4t8.5 -1.5h392q11 0 19.5 8.5t8.5 19.5q0 6 -2.5 11.5t-6 9t-9 5.5t-10.5 2h-112v168h307q24 0 40 16.5
t16 39.5v559q0 24 -16 40t-40 16zM540 -90h-56v168h56v-168zM903 162q0 -11 -8 -19.5t-20 -8.5h-727q-11 0 -19.5 8.5t-8.5 19.5v28h783v-28zM903 246h-783v420q0 11 8.5 19t19.5 8h727q12 0 20 -8t8 -19v-420zM658 533h-215l-16 87q-1 5 -3.5 9t-7 6.5t-9.5 2.5h-42
q-9 0 -15 -6.5t-6 -15t6 -14.5t15 -6h24l39 -214q1 -4 2.5 -7t4.5 -5.5t6.5 -3.5t7.5 -1h167q15 0 20 14l42 126q1 5 0.5 10t-3.5 9q-7 9 -17 9zM601 407h-135l-15 84h178zM574 344q-6 0 -10.5 -3t-7.5 -7.5t-3 -10.5q0 -9 6 -15t15 -6t15 6t6 15t-6 15t-15 6zM490.5 344
q-8.5 0 -14.5 -6t-6 -15t6 -15t14 -6q6 0 11 3t7.5 7.5t2.5 10.5q0 9 -6 15t-14.5 6z" />
    <glyph glyph-name="uniE63F" unicode="&#xe63f;" 
d="M837 184q-15 40 -42.5 85.5t-57.5 82.5t-51 60.5t-35 36.5l-1 1l-2 2q-2 2 -4 3.5t-4 3.5l-7 7q12 -10 28 -10q13 0 23.5 6.5t15.5 18.5q9 -2 16.5 -4t19.5 -5.5t22 -8t19.5 -10t16 -13.5t8.5 -17q4 -14 19 -14h2h2q5 1 9 4.5t5 8.5t0 10q-7 32 -35.5 50.5t-65.5 28.5
q6 5 11 11t9.5 11.5t8 11t6 11t2.5 10.5q1 5 -1 9.5t-6 7.5t-9 4q-3 0 -7 -1t-7 -3t-5 -5t-2.5 -7t-5 -10t-10.5 -12.5t-12.5 -12.5t-12.5 -10q-13 19 -36 19q-10 0 -18.5 -4t-14.5 -11q5 8 12 14q2 1 8 6l2 2q6 5 22.5 18t23.5 18.5t19.5 16t18 17t11.5 15t8 15.5
q2 4 3 7.5t1.5 5.5t1.5 4q8 21 -7 29q-2 3 -6 4.5t-10 1.5t-21 -5q-13 -4 -23 -5.5t-22 1.5q-10 4 -31 19q-41 30 -72 32q-9 0 -17 -0.5t-17 -3.5t-14.5 -5t-14.5 -6q-33 -14 -55 -14q-21 0 -64 6q-12 2 -18.5 2.5t-15 1.5t-14.5 1h-5q-3 0 -5 -0.5t-3 -0.5q-2 1 -4 4t-5 7
q-8 12 -18 12q-3 0 -5.5 -1t-4.5 -2.5t-4 -3.5q-4 -6 -3.5 -11.5t7.5 -31.5l1 -5q1 -1 1 -2t1 -4q9 -55 32 -80q2 -3 4.5 -6t5.5 -7q37 -47 48 -74q-2 -1 -7.5 -2t-8.5 -1q-7 -2 -10.5 -8t-2 -13.5t7.5 -11.5t13 -2q3 1 8 2t6 1q0 -7 -1.5 -14t-4.5 -14q-4 -6 -8 -9
q-129 -110 -187 -266q-38 -103 -37 -166q0 -14 0.5 -22.5t4.5 -27t11.5 -31.5t22.5 -29t36 -26t54.5 -17.5t75.5 -7.5q163 -3 316 -1q42 1 75.5 8t54.5 17t36 26.5t22.5 29t11.5 31t4.5 27.5t0.5 23q1 63 -37 166zM359 611q-7 8 -10 13q-15 17 -24 67l4 1l8 1q11 0 44 -5
q44 -6 67 -6h3q27 0 66 16q31 14 48 12q14 -1 25.5 -7t28.5 -18l12 -9q4 -3 11.5 -7t13.5 -7q10 -4 22 -4.5t22.5 1.5t19.5 5v-1q-3 -10 -18.5 -24t-55.5 -45q-4 -3 -6 -5t-5.5 -4.5t-6.5 -5.5q-9 -6 -11 -8l-1 -1q-3 -2 -4.5 -4t-5 -5.5t-6.5 -7t-6 -9t-5 -10.5
q-78 12 -174 -3q-4 13 -11.5 25t-13.5 19.5t-16 19t-15 16.5zM624 476q-1 2 -2 3.5t-2 4t-2 4.5h1q2 -7 5 -12zM839 19v-15q0 -5 -1 -15t-3.5 -16.5t-6.5 -16t-10.5 -16t-15.5 -14t-22 -12.5t-28.5 -10t-36.5 -7t-46 -2q-154 -2 -316 0q-35 1 -62.5 6t-45 12t-30 18.5
t-18.5 21t-9.5 24t-4 22t-0.5 20.5q-1 56 35 152q54 147 176 252q8 7 15 17l2 2q6 13 8.5 25.5t2.5 25.5q89 14 161 3v-2v-1v-1q1 -13 5 -22.5t7.5 -14.5t11.5 -12q6 -6 8 -9l2 -2q3 -2 5.5 -4t4.5 -4q15 -15 43.5 -46.5t72 -94t61.5 -112.5q36 -96 35 -152zM520 188v98
q6 -2 12.5 -4t12.5 -4.5t11.5 -6.5t11 -8.5t10.5 -9.5l22 27q-32 34 -80 40v42h-20h-17v-40q-40 -3 -65 -26t-25 -57q0 -20 7 -34.5t22 -23.5t27.5 -14t33.5 -11v-109q-46 5 -77 42l-22 -29q17 -20 42 -32.5t57 -14.5v-40h30h7v41q44 5 65.5 29.5t21.5 57.5q0 37 -23.5 56
t-63.5 31zM483 197q-17 5 -27 10t-17.5 13.5t-7.5 20.5q0 20 14.5 33t37.5 14v-91zM520 48v99q23 -8 35.5 -19t12.5 -30q0 -11 -4 -20.5t-15.5 -18t-28.5 -11.5z" />
    <glyph glyph-name="uniE640" unicode="&#xe640;" 
d="M960 278q0 31 -21.5 53t-52.5 22v205q0 29 -14 53t-38.5 38.5t-52.5 14.5h-539q-28 0 -52.5 -14.5t-38.5 -38.5t-14 -53v-205q-30 -2 -51 -23.5t-21 -51t21 -51t51 -23.5v-184q0 -10 6.5 -16.5t16.5 -6.5h18v-28q0 -20 7.5 -31t18.5 -17q15 -7 45 -7h26q7 0 11 0.5
t12.5 1.5t14 2.5t12.5 5.5t11.5 10t7.5 14.5t3 20.5v28h329v-28q0 -20 8 -31t19 -17q6 -3 14 -4.5t14.5 -2t16.5 -0.5h26q10 0 16 0.5t18 3.5t19 8t12.5 16t5.5 27v28h18q4 0 7.5 1t6.5 3t5 5t3 6.5t1 7.5v184q31 0 52.5 22t21.5 52zM111 278q0 6 2 11t5.5 9t8.5 6.5t10 2.5
v-57q-11 1 -18.5 9t-7.5 19zM301 -31v-6v-1q-2 -1 -8.5 -1.5t-17.5 -0.5h-26q-11 0 -17.5 0.5t-7.5 1.5q-1 2 -1 7v28h78v-28zM800 -31q0 -4 -1 -6v-1q-1 -1 -4 -1.5t-9 -0.5h-12h-26q-22 0 -25 2l-1 7v28h78v-28zM841 169h-120q-10 0 -16.5 -6.5t-6.5 -16t6.5 -16.5
t16.5 -7h120v-81h-659v81h120q10 0 16.5 7t6.5 16q0 6 -3 11.5t-8 8.5t-12 3h-120v93h659v-93zM841 308h-659v250q0 25 17.5 42.5t42.5 17.5h539q25 0 42.5 -17.5t17.5 -42.5v-250zM886 249v58q12 0 20 -8.5t8 -20t-8 -20t-20 -9.5z" />
    <glyph glyph-name="uniE641" unicode="&#xe641;" 
d="M171 262q-1 4 -1 10q-2 30 0 60q5 56 25.5 109t46.5 89t52 64t43 41.5t19 12.5l-4 -3t-8.5 -7.5t-12 -11t-15.5 -15.5t-16.5 -19.5t-18 -24t-18.5 -28.5q-36 -58 -53 -129.5t-2 -140.5q16 5 29 11.5t24 15t20.5 18.5t17 22t15 27t13.5 31.5t12 37.5q3 10 7.5 26t7.5 29.5
t8 30.5t10 32t11.5 31.5t14.5 30.5q8 16 18 32.5t19 28.5t17 21.5t12.5 14.5t3.5 5l-14 2q-14 1 -46.5 -1t-67.5 -11q-67 -17 -137 -67.5t-104 -121.5q-38 -80 -34.5 -135t25 -83.5t52.5 -33.5q-10 -106 32 -174q12 -11 26.5 -8t22.5 20q-20 20 -34.5 66t-18.5 95h1z
M356 648zM661 719q4 -3 9 -6q24 -18 46 -40q40 -41 67.5 -91.5t38.5 -94t15.5 -81.5t3.5 -59.5t-2 -22.5v3v7q0 5 -0.5 11t-1 14t-1.5 17t-2.5 19.5t-4 21.5t-6 23.5t-8.5 25.5q-8 24 -18.5 47.5t-26.5 48.5t-34.5 47t-42.5 42.5t-51 34.5q-20 -54 -11 -97.5t51 -107.5
q7 -10 31 -44.5t41 -63t29 -56.5q19 -42 33 -121q-1 1 3.5 4.5t12.5 11.5t17.5 19t21.5 29t22 39q19 38 29.5 87t7.5 109t-25 109q-27 58 -61 95t-64 48.5t-56 9.5t-43 -17q-33 34 -74 59.5t-82 32.5q-17 -2 -24 -14.5t1 -29.5q14 1 33.5 -4.5t41 -14.5t43.5 -22t41 -28z
M839 324zM799 109q-2 -1 -4.5 -2.5t-4.5 -2.5q-9 -5 -19.5 -10t-19 -8.5t-16.5 -6.5q-149 -52 -310 14q-50 21 -54 28l3 -1q4 -2 8.5 -4.5t12 -5.5t16 -6t19.5 -7t22.5 -7t26 -5.5t29.5 -4.5q68 -9 140 4.5t130 56.5q-36 42 -81 53.5t-120 1.5q-12 -2 -53 -9t-73.5 -10
t-62.5 -1q-18 0 -37.5 3t-34 6.5t-26.5 6.5t-18 5t-5 2l3 -14q4 -14 18.5 -43.5t37.5 -58.5q26 -35 65.5 -66.5t94.5 -55t108 -25.5q148 -1 200 72q25 37 16 74q28 10 54.5 24t51.5 34.5t41 43.5q6 17 -2.5 29t-26.5 12q-5 -13 -18 -29t-30.5 -31t-38 -30t-42.5 -26z
M371 121z" />
    <glyph glyph-name="uniE642" unicode="&#xe642;" 
d="M391 586h4h6l1 3q7 15 22 15h40v43q0 6 4 10.5t10 4.5t10 -4.5t4 -10.5v-43h39v43q0 6 4.5 10.5t10.5 4.5t10 -4.5t4 -10.5v-43h39q17 0 23 -16l1 -2h5h5q9 0 17 -1.5t15.5 -4t14.5 -6t13.5 -8t11.5 -10.5l1 -1v92q0 6 4 10.5t10 4.5t10.5 -4.5t4.5 -10.5v-160v-3
q0 -7 -1 -14t-3 -13.5t-4.5 -12.5t-6.5 -12q-4 -7 -13.5 -20t-10.5 -15l-51 -87q-7 -12 -20 -12v-1h-35v-37q0 -10 -7 -17t-17 -7h-1h-29v-37v-1q0 -10 -7 -17t-17 -7q-3 0 -5.5 -0.5t-5.5 -1t-5 -1.5t-4.5 -2.5t-4.5 -3t-4 -3.5q-12 -12 -12 -28.5t12 -28.5t29 -12t28.5 12
t11.5 28q0 10 7.5 17t17.5 7q5 0 9.5 -1.5t7.5 -5t5 -8t2 -9.5q0 -36 -26 -62t-63 -26t-63 26t-26 62.5t26 62.5v1q17 16 39 22v17h-30q-7 0 -12.5 3t-8.5 8.5t-3 12.5v1v36h-35q-15 0 -22 15l-50 87l-9 13q-5 8 -8.5 13.5t-7.5 12.5t-6.5 13.5t-4.5 15t-2 17.5v2v161
q0 6 4 10.5t10 4.5t10.5 -4.5t4.5 -10.5v-92l1 1v1q31 29 72 29zM334 439l54 118q-29 -1 -49 -21.5t-21 -49.5v-2v-1q0 -26 16 -44zM636 557l54 -119q1 2 6 8q13 22 9.5 47t-20.5 43q-5 4 -10.5 8t-11.5 6.5t-13 4.5t-14 2zM512 807q-162 0 -283 -109q-118 -106 -137 -261
q-3 -27 -3 -53q0 -162 109 -283q106 -118 261 -137q27 -3 53 -3q115 0 212.5 56.5t154 154t56.5 212.5t-56.5 212.5t-154 154t-212.5 56.5zM512 2q-103 0 -191 51.5t-139.5 139.5t-51.5 191q0 77 30.5 148t81.5 122t122 81.5t148 30.5q104 0 192 -51.5t139 -139.5t51 -191
t-51.5 -191t-139.5 -139.5t-191 -51.5z" />
    <glyph glyph-name="uniE643" unicode="&#xe643;" 
d="M291 -63h460l66 137h-598zM725 -21h-409l-28 54h463zM725 -21zM747 534l-122 -217l-121 308l-116 -306l-113 215l-28 -261l-157 107l118 -272h619l108 279l-154 -117zM799 150h-563l-51 115l97 -65l20 193l92 -174l111 291l113 -289l104 184l27 -211l94 71zM799 150z
M62 445q0 -2 0.5 -4.5t1.5 -4.5v-4l2 -4t2.5 -4t2.5 -3.5t3 -3.5t5.5 -4t7 -3.5t7 -2.5t7.5 -1q16 0 27.5 11.5t11.5 27.5t-11 27q-2 2 -3.5 3t-3.5 2.5t-4 2.5l-4 2h-4q-2 1 -4.5 1.5t-4.5 0.5q-16 0 -27 -12q-6 -5 -9 -12.5t-3 -14.5zM62 445zM467 685q0 -7 3 -14.5
t8 -12.5l2 -2q2 -2 4 -3t3.5 -2t3 -1.5t3.5 -1.5h4q2 -1 4 -1h3q17 0 28 11q5 5 8 12.5t3 15t-3 14.5t-8 12.5t-12.5 8.5t-15.5 3q-3 0 -7 -0.5t-7.5 -2t-6.5 -4t-6 -4.5q-11 -12 -11 -28zM467 685zM883 445v-4q0 -2 0.5 -4t1 -3.5t1.5 -3.5t1.5 -3.5t2 -3t2.5 -3t2 -3.5
q6 -5 13 -8t15 -3q16 0 27 11q2 3 4 5.5t3.5 5t1.5 5.5l2 6v6q0 16 -11 27q-4 4 -8 6.5t-9 4t-10 1.5q-16 0 -28 -12q-5 -5 -8 -12.5t-3 -14.5zM883 445z" />
    <glyph glyph-name="uniE644" unicode="&#xe644;" 
d="M732 522q-6 37 -32 65t-58.5 41t-57.5 18.5t-39 5.5l-8 1q-18 0 -37.5 -2.5t-49.5 -11.5t-53 -25t-41.5 -47t-21.5 -72q-2 -13 -5.5 -30t-11.5 -38t-19 -31q-16 -17 -11 -29t28 -12h3h2q2 0 3 -1q-1 -9 -3 -15.5t-2 -11.5q0 -11 11 -16q-2 -5 -2.5 -9t1 -8t5 -7.5
t3.5 -23.5t15 -32q17 -14 41 -10h2q14 2 20 2q12 0 17 -7q3 -5 9 -11q3 -3 4.5 -5t4 -5.5t3.5 -6.5l2 -8q2 -4 2.5 -9.5t0.5 -12.5q0 -24 3 -34l3 -6q1 -3 3 -3l209 1l3 1v4l-4 13q-2 6 -3.5 13.5t-5 32.5t-3.5 47.5t6 52t19 52.5q5 10 19 34l1 1q26 44 29.5 64.5t-4.5 90.5
zM642 144h-156q-1 7 -1 14q0 14 -2 25t-6 19t-7 12t-9 11q-6 6 -7 8q-4 5 -8 8.5t-9 5.5t-11 3.5t-12 1.5q-3 0 -6 -0.5t-6.5 -1t-5.5 -0.5t-6 -1h-3h-4q-3 0 -6 0.5t-8 4t-5 9.5q0 15 -1.5 23t-5.5 15q4 6 4 14q0 13 -12 19q2 10 3 23q1 4 0 7.5t-2 5.5t-3 4q-7 8 -22 9
q28 36 37 109q2 29 12.5 51.5t26.5 36t33.5 23t38 14t35 6t29.5 1.5h8q4 0 16 -2t36.5 -9t45.5 -17.5t39 -31t21 -46.5q9 -61 6 -79t-27 -58q-5 -9 -10 -17.5t-10 -17.5q-45 -82 -20 -202zM412 453l-2 5q-2 3 -4 10.5t-1 12.5q2 6 2 11t1 9t0 6.5t0 5.5t4 7q7 7 11 13.5
t3 11.5q0 2 0.5 4t1 4.5t1.5 4.5t3.5 3.5t5.5 3.5q9 3 20 10t11 10q0 1 3.5 3t8 3t7.5 1q6 0 14 2t10 5q2 2 5.5 3t8 0.5t6.5 -2.5q12 -12 19 -4q3 3 9 3t8 -2q1 -1 2.5 -5.5t3.5 -6.5t6 0q3 1 5.5 1.5t5 0t4 -0.5t4 -1.5t3.5 -1.5q3 -1 7.5 -7.5t9.5 -4.5q2 2 4.5 1t4 -2.5
t3.5 -4.5t3 -4t2.5 -4.5t4 -6t6.5 -1.5q12 0 12 -12q1 -4 10 -13q3 -4 6.5 -10.5t3.5 -11.5q0 -2 -1 -5.5t-0.5 -6.5t2.5 -5q4 -4 5 -10.5t-2 -9.5q-4 -5 -5.5 -8t1.5 -8q5 -5 -5 -16q-5 -6 -4 -20q0 -1 0.5 -3.5t0.5 -4t-0.5 -3t-2.5 -2.5t-5 -1q-20 -1 -30 -13
q-2 -2 -4.5 -5.5t-4.5 -6t-4.5 -5t-4 -2.5t-3.5 2t-10 6.5t-12 10.5q-1 3 -2.5 5.5t-2.5 4.5l-2 2l-1 2h-3l-5 -2q-5 -1 -7.5 0t-0.5 6q1 1 1 3q3 7 3 10t-5 3h-8h-9q-4 0 -8 -1t-6 -3q-9 -11 -20 -1l-2 2q-9 9 -17 4q-2 -1 -5 -3.5t-4 -3t-3.5 -0.5t-4.5 1.5t-5 4.5
q-15 14 -26 14q-2 0 -5.5 -1t-6 -1t-5 1.5t-2.5 4.5q0 4 -4 8t-8 6z" />
    <glyph glyph-name="uniE645" unicode="&#xe645;" 
d="M886 719q-82 82 -198.5 82t-198.5 -82l-196 -196q-9 -9 -9 -22.5t9.5 -23t22.5 -9.5q7 0 13 2.5t10 6.5l196 196q63 63 153 63q17 0 34 -2.5t32.5 -7.5t30.5 -13t29 -18t26 -22q63 -63 63 -152.5t-63 -152.5l-328 -328l-328 328q-63 63 -63 152.5t63 152.5q30 31 69.5 47
t82.5 16q15 0 31 -2h4q13 0 22 8t11 19q0 5 -0.5 9t-2 8t-4 7.5t-6 6t-7.5 4t-8 2.5q-19 3 -40 3q-44 0 -86 -14q-64 -20 -112 -68q-54 -54 -73 -126t0 -144.5t73 -126.5l351 -351q10 -9 23 -9q4 0 8.5 1t8 3t6.5 5l351 351q82 82 82 198.5t-82 198.5z" />
  </font>
</defs>
</svg>
